<svg width="240" height="149" viewBox="0 0 240 149" fill="none" xmlns="http://www.w3.org/2000/svg">
<rect width="240" height="149" fill="#312E38"/>
<path d="M59.0285 131.761V130.892H62.6198V131.761L61.5005 131.953V135.395H66.3485V131.953L65.2292 131.761V130.892H68.8205V131.761L67.7012 131.953V139.802L68.8205 139.994V140.856H65.2292V139.994L66.3485 139.802V136.456H61.5005V139.802L62.6198 139.994V140.856H59.0285V139.994L60.1478 139.802V131.953L59.0285 131.761Z" fill="#999591"/>
<path d="M74.8083 140.856C74.7671 140.656 74.7351 140.475 74.7122 140.316C74.6893 140.156 74.6733 139.996 74.6641 139.837C74.4032 140.17 74.0759 140.448 73.6822 140.671C73.2931 140.89 72.8765 141 72.4324 141C71.6588 141 71.0705 140.813 70.6677 140.439C70.2648 140.06 70.0634 139.529 70.0634 138.844C70.0634 138.142 70.3472 137.601 70.9149 137.222C71.4871 136.839 72.2699 136.647 73.2633 136.647H74.6573V135.785C74.6573 135.352 74.5199 135.009 74.2453 134.759C73.9706 134.503 73.5883 134.375 73.0985 134.375C72.7598 134.375 72.4599 134.419 72.199 134.505C71.9426 134.592 71.7343 134.711 71.5741 134.861L71.4299 135.641H70.3861V134.204C70.7249 133.935 71.1346 133.721 71.6153 133.561C72.096 133.397 72.6178 133.315 73.1809 133.315C74.0232 133.315 74.7053 133.529 75.2272 133.958C75.7491 134.387 76.01 135 76.01 135.799V139.364C76.01 139.46 76.01 139.554 76.01 139.645C76.0146 139.736 76.0215 139.827 76.0306 139.919L76.58 139.994V140.856H74.8083ZM72.6316 139.871C73.0802 139.871 73.4899 139.764 73.8607 139.549C74.2315 139.335 74.497 139.077 74.6573 138.776V137.558H73.2152C72.6613 137.558 72.2219 137.685 71.8968 137.941C71.5764 138.196 71.4162 138.507 71.4162 138.872C71.4162 139.196 71.5169 139.444 71.7183 139.618C71.9197 139.786 72.2241 139.871 72.6316 139.871Z" fill="#999591"/>
<path d="M77.7061 139.994L78.8254 139.802V134.512L77.7061 134.321V133.451H80.1782V139.802L81.2975 139.994V140.856H77.7061V139.994ZM80.1782 131.556H78.8254V130.18H80.1782V131.556Z" fill="#999591"/>
<path d="M82.3343 134.321V133.451H84.6622L84.7926 134.526C85.0032 134.147 85.2619 133.851 85.5686 133.636C85.8799 133.422 86.2347 133.315 86.6329 133.315C86.7382 133.315 86.8458 133.324 86.9557 133.342C87.0701 133.356 87.1571 133.372 87.2166 133.39L87.0381 134.642L86.269 134.601C85.9119 134.601 85.6121 134.686 85.3695 134.854C85.1268 135.019 84.9391 135.251 84.8064 135.552V139.802L85.9257 139.994V140.856H82.3343V139.994L83.4536 139.802V134.512L82.3343 134.321Z" fill="#999591"/>
<path d="M91.3573 139.946C91.8059 139.946 92.1996 139.809 92.5384 139.535C92.8817 139.257 93.0534 138.917 93.0534 138.516H94.2688L94.2825 138.557C94.3054 139.196 94.0193 139.764 93.4242 140.261C92.8337 140.754 92.1447 141 91.3573 141C90.2769 141 89.4506 140.649 88.8784 139.946C88.3107 139.243 88.0269 138.361 88.0269 137.298V137.01C88.0269 135.956 88.313 135.078 88.8853 134.375C89.4575 133.668 90.2815 133.315 91.3573 133.315C91.9524 133.315 92.4857 133.413 92.9573 133.609C93.4333 133.805 93.827 134.074 94.1383 134.416L94.2001 136.059H93.1221L92.8268 134.895C92.6666 134.74 92.4606 134.615 92.2088 134.519C91.957 134.423 91.6732 134.375 91.3573 134.375C90.6477 134.375 90.1396 134.631 89.8329 135.142C89.5307 135.648 89.3797 136.271 89.3797 137.01V137.298C89.3797 138.055 89.5307 138.687 89.8329 139.193C90.135 139.695 90.6431 139.946 91.3573 139.946Z" fill="#999591"/>
<path d="M100.916 139.761C100.682 140.158 100.38 140.464 100.009 140.678C99.6432 140.893 99.2198 141 98.7391 141C97.9334 141 97.3039 140.742 96.8507 140.227C96.3975 139.711 96.1709 138.908 96.1709 137.818V134.512L95.3194 134.321V133.451H97.5237V137.831C97.5237 138.621 97.6404 139.164 97.8739 139.46C98.1073 139.757 98.4713 139.905 98.9657 139.905C99.4464 139.905 99.8424 139.809 100.154 139.618C100.47 139.421 100.708 139.145 100.868 138.789V134.512L99.8721 134.321V133.451H102.22V139.802L103.072 139.994V140.856H101.005L100.916 139.761Z" fill="#999591"/>
<path d="M106.505 131.665V133.451H107.913V134.451H106.505V138.947C106.505 139.294 106.576 139.538 106.718 139.679C106.865 139.821 107.057 139.891 107.295 139.891C107.414 139.891 107.547 139.882 107.693 139.864C107.844 139.841 107.97 139.818 108.071 139.795L108.256 140.719C108.128 140.802 107.941 140.868 107.693 140.918C107.446 140.973 107.199 141 106.952 141C106.402 141 105.965 140.836 105.64 140.507C105.315 140.174 105.153 139.654 105.153 138.947V134.451H103.978V133.451H105.153V131.665H106.505Z" fill="#999591"/>
<path d="M114.979 135.778H113.963L113.743 134.889C113.578 134.733 113.37 134.61 113.118 134.519C112.871 134.423 112.589 134.375 112.274 134.375C111.793 134.375 111.436 134.48 111.202 134.69C110.969 134.9 110.852 135.153 110.852 135.45C110.852 135.742 110.955 135.972 111.161 136.141C111.367 136.31 111.786 136.46 112.418 136.593C113.356 136.793 114.054 137.067 114.512 137.414C114.97 137.756 115.199 138.217 115.199 138.796C115.199 139.453 114.931 139.985 114.395 140.391C113.864 140.797 113.168 141 112.308 141C111.745 141 111.239 140.936 110.79 140.808C110.342 140.676 109.941 140.487 109.589 140.24L109.582 138.55H110.598L110.852 139.542C111.008 139.684 111.218 139.786 111.484 139.85C111.754 139.914 112.029 139.946 112.308 139.946C112.789 139.946 113.164 139.85 113.434 139.659C113.709 139.462 113.846 139.207 113.846 138.892C113.846 138.596 113.732 138.351 113.503 138.16C113.278 137.968 112.85 137.802 112.219 137.66C111.317 137.464 110.637 137.197 110.179 136.86C109.721 136.522 109.492 136.066 109.492 135.491C109.492 134.889 109.749 134.375 110.262 133.951C110.779 133.527 111.45 133.315 112.274 133.315C112.837 133.315 113.342 133.388 113.791 133.534C114.24 133.68 114.613 133.883 114.91 134.143L114.979 135.778Z" fill="#999591"/>
<path d="M119.861 138.174C119.861 137.617 120.022 137.131 120.342 136.716C120.667 136.296 121.15 135.876 121.791 135.457C121.434 135.005 121.168 134.603 120.994 134.252C120.82 133.896 120.733 133.531 120.733 133.157C120.733 132.386 120.955 131.793 121.399 131.378C121.848 130.958 122.464 130.748 123.247 130.748C123.97 130.748 124.558 130.956 125.011 131.371C125.465 131.786 125.691 132.286 125.691 132.87C125.691 133.317 125.57 133.705 125.327 134.033C125.089 134.357 124.734 134.69 124.263 135.032L123.514 135.58L125.849 138.379C126.037 138.082 126.183 137.754 126.289 137.393C126.394 137.033 126.447 136.652 126.447 136.25H127.655C127.655 136.848 127.566 137.402 127.387 137.913C127.209 138.424 126.95 138.883 126.611 139.289L127.882 140.822L127.868 140.856H126.295L125.712 140.158C125.346 140.432 124.94 140.642 124.496 140.788C124.052 140.929 123.592 141 123.116 141C122.123 141 121.331 140.738 120.74 140.213C120.154 139.688 119.861 139.008 119.861 138.174ZM123.116 139.946C123.446 139.946 123.771 139.891 124.091 139.782C124.412 139.668 124.714 139.506 124.998 139.296L122.519 136.319L122.244 136.517C121.828 136.828 121.551 137.124 121.413 137.407C121.28 137.69 121.214 137.945 121.214 138.174C121.214 138.689 121.377 139.113 121.702 139.446C122.027 139.78 122.498 139.946 123.116 139.946ZM122.086 133.143C122.086 133.385 122.148 133.638 122.272 133.903C122.395 134.163 122.581 134.448 122.828 134.759L123.775 134.108C124.036 133.935 124.213 133.748 124.304 133.547C124.4 133.342 124.448 133.116 124.448 132.87C124.448 132.591 124.336 132.345 124.112 132.131C123.892 131.916 123.604 131.809 123.247 131.809C122.876 131.809 122.59 131.939 122.388 132.199C122.187 132.455 122.086 132.769 122.086 133.143Z" fill="#999591"/>
<path d="M139.439 133.835H138.415L138.161 132.411C137.955 132.238 137.681 132.094 137.337 131.98C136.994 131.866 136.596 131.809 136.142 131.809C135.424 131.809 134.872 131.962 134.488 132.267C134.103 132.569 133.911 132.963 133.911 133.451C133.911 133.885 134.105 134.248 134.494 134.54C134.888 134.827 135.522 135.08 136.397 135.299C137.449 135.559 138.248 135.943 138.793 136.449C139.342 136.955 139.617 137.583 139.617 138.331C139.617 139.134 139.287 139.78 138.628 140.268C137.974 140.756 137.115 141 136.053 141C135.284 141 134.6 140.875 134 140.624C133.405 140.373 132.92 140.044 132.544 139.638V137.783H133.561L133.821 139.214C134.082 139.428 134.394 139.604 134.755 139.741C135.117 139.878 135.55 139.946 136.053 139.946C136.735 139.946 137.273 139.802 137.667 139.515C138.065 139.227 138.264 138.837 138.264 138.345C138.264 137.888 138.093 137.507 137.749 137.202C137.406 136.891 136.799 136.631 135.93 136.422C134.872 136.171 134.046 135.801 133.451 135.313C132.856 134.825 132.558 134.211 132.558 133.472C132.558 132.692 132.89 132.044 133.554 131.528C134.217 131.008 135.08 130.748 136.142 130.748C136.843 130.748 137.479 130.869 138.051 131.111C138.628 131.348 139.091 131.638 139.439 131.98V133.835Z" fill="#999591"/>
<path d="M140.709 139.994L141.828 139.802V131.241L140.709 131.049V130.18H143.181V134.437C143.437 134.081 143.751 133.805 144.122 133.609C144.492 133.413 144.904 133.315 145.358 133.315C146.154 133.315 146.772 133.552 147.212 134.026C147.651 134.501 147.871 135.231 147.871 136.216V139.802L148.99 139.994V140.856H145.399V139.994L146.518 139.802V136.203C146.518 135.591 146.385 135.14 146.12 134.848C145.859 134.556 145.468 134.41 144.946 134.41C144.575 134.41 144.236 134.498 143.929 134.676C143.627 134.85 143.378 135.087 143.181 135.388V139.802L144.3 139.994V140.856H140.709V139.994Z" fill="#999591"/>
<path d="M154.82 140.856C154.779 140.656 154.747 140.475 154.724 140.316C154.701 140.156 154.685 139.996 154.676 139.837C154.415 140.17 154.088 140.448 153.694 140.671C153.305 140.89 152.888 141 152.444 141C151.671 141 151.082 140.813 150.679 140.439C150.277 140.06 150.075 139.529 150.075 138.844C150.075 138.142 150.359 137.601 150.927 137.222C151.499 136.839 152.282 136.647 153.275 136.647H154.669V135.785C154.669 135.352 154.532 135.009 154.257 134.759C153.982 134.503 153.6 134.375 153.11 134.375C152.772 134.375 152.472 134.419 152.211 134.505C151.954 134.592 151.746 134.711 151.586 134.861L151.442 135.641H150.398V134.204C150.737 133.935 151.146 133.721 151.627 133.561C152.108 133.397 152.63 133.315 153.193 133.315C154.035 133.315 154.717 133.529 155.239 133.958C155.761 134.387 156.022 135 156.022 135.799V139.364C156.022 139.46 156.022 139.554 156.022 139.645C156.026 139.736 156.033 139.827 156.042 139.919L156.592 139.994V140.856H154.82ZM152.643 139.871C153.092 139.871 153.502 139.764 153.872 139.549C154.243 139.335 154.509 139.077 154.669 138.776V137.558H153.227C152.673 137.558 152.234 137.685 151.909 137.941C151.588 138.196 151.428 138.507 151.428 138.872C151.428 139.196 151.529 139.444 151.73 139.618C151.931 139.786 152.236 139.871 152.643 139.871Z" fill="#999591"/>
<path d="M160.156 134.321L159.263 134.457L160.794 138.673L160.918 139.207H160.959L161.089 138.673L162.573 134.457L161.673 134.321V133.451H164.543V134.321L163.932 134.423L161.44 140.856H160.417L157.896 134.423L157.285 134.321V133.451H160.156V134.321Z" fill="#999591"/>
<path d="M168.76 141C167.725 141 166.901 140.658 166.288 139.973C165.679 139.285 165.374 138.393 165.374 137.298V136.996C165.374 135.943 165.688 135.067 166.315 134.368C166.947 133.666 167.693 133.315 168.554 133.315C169.552 133.315 170.307 133.616 170.82 134.218C171.337 134.82 171.596 135.623 171.596 136.627V137.469H166.775L166.755 137.503C166.768 138.215 166.949 138.801 167.297 139.262C167.645 139.718 168.133 139.946 168.76 139.946C169.217 139.946 169.618 139.882 169.961 139.754C170.309 139.622 170.609 139.442 170.861 139.214L171.39 140.09C171.124 140.345 170.772 140.562 170.332 140.74C169.897 140.913 169.373 141 168.76 141ZM168.554 134.375C168.1 134.375 167.714 134.567 167.393 134.95C167.073 135.329 166.876 135.806 166.803 136.381L166.816 136.415H170.243V136.237C170.243 135.708 170.101 135.265 169.817 134.909C169.533 134.553 169.112 134.375 168.554 134.375Z" fill="#999591"/>
<path d="M178.62 135.778H177.604L177.384 134.889C177.22 134.733 177.011 134.61 176.759 134.519C176.512 134.423 176.231 134.375 175.915 134.375C175.434 134.375 175.077 134.48 174.844 134.69C174.61 134.9 174.493 135.153 174.493 135.45C174.493 135.742 174.596 135.972 174.802 136.141C175.008 136.31 175.427 136.46 176.059 136.593C176.998 136.793 177.696 137.067 178.153 137.414C178.611 137.756 178.84 138.217 178.84 138.796C178.84 139.453 178.572 139.985 178.037 140.391C177.506 140.797 176.81 141 175.949 141C175.386 141 174.88 140.936 174.432 140.808C173.983 140.676 173.582 140.487 173.23 140.24L173.223 138.55H174.239L174.493 139.542C174.649 139.684 174.86 139.786 175.125 139.85C175.395 139.914 175.67 139.946 175.949 139.946C176.43 139.946 176.805 139.85 177.075 139.659C177.35 139.462 177.487 139.207 177.487 138.892C177.487 138.596 177.373 138.351 177.144 138.16C176.92 137.968 176.492 137.802 175.86 137.66C174.958 137.464 174.278 137.197 173.821 136.86C173.363 136.522 173.134 136.066 173.134 135.491C173.134 134.889 173.39 134.375 173.903 133.951C174.42 133.527 175.091 133.315 175.915 133.315C176.478 133.315 176.984 133.388 177.432 133.534C177.881 133.68 178.254 133.883 178.552 134.143L178.62 135.778Z" fill="#999591"/>
<path d="M87.1411 16.1021L87.8827 15.9994L91.3779 7H92.5384L95.9718 15.9994L96.7065 16.1021V16.9644H93.8362V16.1021L94.5916 15.972L93.9324 14.1379H89.929L89.2492 15.972L90.0046 16.1021V16.9644H87.1411V16.1021ZM90.3479 13.0087H93.5204L91.9685 8.73145H91.9273L90.3479 13.0087Z" fill="#999591"/>
<path d="M99.4601 10.4287L98.6086 10.5792L99.5769 14.268L99.7348 15.1645H99.776L99.9683 14.268L101.451 9.55952H102.536L104.027 14.268L104.239 15.2671H104.281L104.48 14.268L105.393 10.5792L104.528 10.4287V9.55952H107.357V10.4287L106.711 10.5245L104.837 16.9644H103.745L102.303 12.4544L101.994 11.2088L101.953 11.2157L101.664 12.4544L100.25 16.9644H99.158L97.2834 10.5245L96.631 10.4287V9.55952H99.4601V10.4287Z" fill="#999591"/>
<path d="M111.848 17.1081C110.813 17.1081 109.989 16.7659 109.376 16.0815C108.767 15.3926 108.462 14.5007 108.462 13.4057V13.1045C108.462 12.0506 108.776 11.1746 109.403 10.4766C110.035 9.77396 110.781 9.42265 111.642 9.42265C112.64 9.42265 113.395 9.72377 113.908 10.326C114.425 10.9283 114.684 11.7312 114.684 12.735V13.5768H109.863L109.843 13.611C109.856 14.3227 110.037 14.909 110.385 15.3698C110.733 15.826 111.221 16.0542 111.848 16.0542C112.306 16.0542 112.706 15.9903 113.049 15.8625C113.397 15.7302 113.697 15.55 113.949 15.3219L114.478 16.1979C114.212 16.4534 113.86 16.6701 113.42 16.848C112.985 17.0214 112.461 17.1081 111.848 17.1081ZM111.642 10.4834C111.189 10.4834 110.802 10.675 110.481 11.0583C110.161 11.437 109.964 11.9137 109.891 12.4886L109.905 12.5228H113.331V12.3449C113.331 11.8157 113.189 11.3731 112.905 11.0172C112.621 10.6614 112.2 10.4834 111.642 10.4834Z" fill="#999591"/>
<path d="M121.708 11.8864H120.692L120.472 10.9967C120.308 10.8416 120.099 10.7184 119.848 10.6271C119.6 10.5313 119.319 10.4834 119.003 10.4834C118.522 10.4834 118.165 10.5884 117.932 10.7982C117.698 11.0081 117.582 11.2613 117.582 11.5579C117.582 11.8499 117.685 12.0803 117.891 12.2491C118.097 12.4179 118.515 12.5685 119.147 12.7008C120.086 12.9015 120.784 13.1753 121.242 13.522C121.699 13.8642 121.928 14.325 121.928 14.9044C121.928 15.5614 121.66 16.0929 121.125 16.499C120.594 16.9051 119.898 17.1081 119.037 17.1081C118.474 17.1081 117.968 17.0442 117.52 16.9165C117.071 16.7842 116.671 16.5948 116.318 16.3484L116.311 14.6581H117.327L117.582 15.6504C117.737 15.7918 117.948 15.8945 118.213 15.9584C118.483 16.0222 118.758 16.0542 119.037 16.0542C119.518 16.0542 119.893 15.9584 120.163 15.7667C120.438 15.5705 120.575 15.315 120.575 15.0002C120.575 14.7037 120.461 14.4596 120.232 14.268C120.008 14.0763 119.58 13.9098 118.948 13.7684C118.046 13.5722 117.366 13.3053 116.909 12.9677C116.451 12.6301 116.222 12.1738 116.222 11.5989C116.222 10.9967 116.478 10.4834 116.991 10.0591C117.508 9.6348 118.179 9.42265 119.003 9.42265C119.566 9.42265 120.072 9.49565 120.521 9.64164C120.969 9.78764 121.342 9.99067 121.64 10.2507L121.708 11.8864Z" fill="#999591"/>
<path d="M123.199 13.1935C123.199 12.0985 123.496 11.1974 124.091 10.4903C124.686 9.77852 125.494 9.42265 126.515 9.42265C127.541 9.42265 128.351 9.77624 128.946 10.4834C129.546 11.1906 129.846 12.094 129.846 13.1935V13.3441C129.846 14.4482 129.548 15.3515 128.953 16.0542C128.358 16.7568 127.55 17.1081 126.529 17.1081C125.499 17.1081 124.686 16.7568 124.091 16.0542C123.496 15.347 123.199 14.4436 123.199 13.3441V13.1935ZM124.551 13.3441C124.551 14.1288 124.716 14.7767 125.046 15.2877C125.38 15.7987 125.874 16.0542 126.529 16.0542C127.17 16.0542 127.657 15.7987 127.992 15.2877C128.326 14.7767 128.493 14.1288 128.493 13.3441V13.1935C128.493 12.4179 128.326 11.7723 127.992 11.2568C127.657 10.7412 127.165 10.4834 126.515 10.4834C125.865 10.4834 125.375 10.7412 125.046 11.2568C124.716 11.7723 124.551 12.4179 124.551 13.1935V13.3441Z" fill="#999591"/>
<path d="M130.821 16.1021L131.94 15.9104V10.6203L130.821 10.4287V9.55952H133.155L133.245 10.5245C133.483 10.1732 133.789 9.9017 134.165 9.71008C134.54 9.51846 134.975 9.42265 135.47 9.42265C135.964 9.42265 136.387 9.53671 136.74 9.76483C137.097 9.99295 137.365 10.3351 137.543 10.7914C137.777 10.3716 138.086 10.0386 138.47 9.79221C138.855 9.54583 139.303 9.42265 139.816 9.42265C140.576 9.42265 141.176 9.68271 141.615 10.2028C142.055 10.7184 142.275 11.4963 142.275 12.5365V15.9104L143.394 16.1021V16.9644H139.796V16.1021L140.915 15.9104V12.5228C140.915 11.7928 140.789 11.2773 140.537 10.9762C140.285 10.6705 139.912 10.5176 139.418 10.5176C138.946 10.5176 138.566 10.6842 138.278 11.0172C137.994 11.3457 137.829 11.7609 137.784 12.2628V15.9104L138.903 16.1021V16.9644H135.312V16.1021L136.431 15.9104V12.5228C136.431 11.8293 136.3 11.3229 136.039 11.0035C135.783 10.6796 135.41 10.5176 134.92 10.5176C134.508 10.5176 134.169 10.602 133.904 10.7709C133.638 10.9397 133.435 11.1769 133.293 11.4826V15.9104L134.412 16.1021V16.9644H130.821V16.1021Z" fill="#999591"/>
<path d="M147.706 17.1081C146.672 17.1081 145.848 16.7659 145.234 16.0815C144.625 15.3926 144.321 14.5007 144.321 13.4057V13.1045C144.321 12.0506 144.634 11.1746 145.262 10.4766C145.893 9.77396 146.64 9.42265 147.5 9.42265C148.498 9.42265 149.253 9.72377 149.766 10.326C150.283 10.9283 150.542 11.7312 150.542 12.735V13.5768H145.722L145.701 13.611C145.715 14.3227 145.896 14.909 146.244 15.3698C146.591 15.826 147.079 16.0542 147.706 16.0542C148.164 16.0542 148.564 15.9903 148.908 15.8625C149.256 15.7302 149.556 15.55 149.807 15.3219L150.336 16.1979C150.071 16.4534 149.718 16.6701 149.279 16.848C148.844 17.0214 148.32 17.1081 147.706 17.1081ZM147.5 10.4834C147.047 10.4834 146.66 10.675 146.34 11.0583C146.019 11.437 145.822 11.9137 145.749 12.4886L145.763 12.5228H149.189V12.3449C149.189 11.8157 149.047 11.3731 148.764 11.0172C148.48 10.6614 148.059 10.4834 147.5 10.4834Z" fill="#999591"/>
<path d="M234.033 113.073H4V115.075H234.033V113.073Z" fill="#FF9000"/>
<path d="M234.033 32.9825H4V34.9848H234.033V32.9825Z" fill="#FF9000"/>
<path d="M57.2793 71.8023V85.8742C57.2793 87.0702 57.0356 88.2101 56.548 89.294C56.098 90.3405 55.4792 91.2562 54.6917 92.0411C53.9042 92.826 52.9666 93.4427 51.8791 93.8912C50.829 94.3771 49.704 94.62 48.5039 94.62C47.3038 94.62 46.1788 94.3958 45.1287 93.9473C44.0787 93.4988 43.1599 92.9008 42.3723 92.1533C41.5848 91.3684 40.9473 90.4714 40.4598 89.4622C40.0097 88.4157 39.766 87.2944 39.7285 86.0984V75.7267C39.616 74.5681 39.0909 73.7271 38.1534 73.2039C38.6784 72.9422 39.2034 72.8114 39.7285 72.8114V59.5805C39.766 58.3845 40.0097 57.2632 40.4598 56.2167C40.9473 55.1702 41.5848 54.2732 42.3723 53.5256C43.1599 52.7408 44.0787 52.1241 45.1287 51.6756C46.1788 51.227 47.3038 51.0028 48.5039 51.0028C49.704 51.0028 50.829 51.2457 51.8791 51.7316C52.9666 52.1801 53.9042 52.7968 54.6917 53.5817C55.4792 54.3666 56.098 55.301 56.548 56.3849C57.0356 57.4314 57.2793 58.5713 57.2793 59.8047C57.2793 60.4401 57.3356 60.9073 57.4481 61.2063C57.5981 61.5053 57.7481 61.7483 57.8981 61.9351C58.0481 62.122 58.1794 62.2902 58.2919 62.4397C58.4419 62.5892 58.5169 62.8321 58.5169 63.1685H55.5917C54.9917 63.0938 54.6917 62.7761 54.6917 62.2155C54.6917 62.7761 54.3917 63.0938 53.7916 63.1685H50.8103C50.8103 62.8321 50.8665 62.5892 50.979 62.4397C51.129 62.2902 51.279 62.122 51.429 61.9351C51.579 61.7483 51.7103 61.5053 51.8228 61.2063C51.9728 60.9073 52.0478 60.4214 52.0478 59.7487V59.6926C52.0478 59.2067 52.0291 58.6274 51.9916 57.9546C51.9541 57.2445 51.8228 56.5717 51.5978 55.9364C51.3728 55.301 51.0165 54.759 50.529 54.3105C50.0415 53.862 49.3664 53.6378 48.5039 53.6378C47.6039 53.6378 46.9101 53.8807 46.4225 54.3666C45.9725 54.8151 45.635 55.357 45.41 55.9924C45.185 56.6278 45.0537 57.3006 45.0162 58.0107C44.9787 58.7208 44.96 59.3188 44.96 59.8047V72.8114C45.485 72.8114 46.01 72.9422 46.535 73.2039C45.5975 73.7271 45.0725 74.5681 44.96 75.7267V85.8742C44.96 86.3601 44.9787 86.9581 45.0162 87.6682C45.0537 88.341 45.185 89.0137 45.41 89.6865C45.635 90.3219 45.9725 90.8638 46.4225 91.3123C46.9101 91.7608 47.6039 91.9851 48.5039 91.9851C49.4039 91.9851 50.079 91.7608 50.529 91.3123C51.0165 90.8638 51.3728 90.3219 51.5978 89.6865C51.8228 89.0137 51.9541 88.341 51.9916 87.6682C52.0291 86.9581 52.0478 86.3601 52.0478 85.8742V74.3812C51.6353 74.4186 51.279 74.5868 50.979 74.8858C50.7165 75.1848 50.5852 75.5398 50.5852 75.951V76.007C50.5477 76.5677 50.3977 77.0535 50.1352 77.4647C49.9102 77.8384 49.5727 78.1748 49.1227 78.4738C48.6727 78.7354 48.0164 78.8663 47.1538 78.8663V71.8023H57.2793ZM42.7661 70.1764C42.7661 69.9522 42.7474 69.7279 42.7099 69.5037C42.7099 69.2794 42.7099 69.0739 42.7099 68.887V67.5975C42.6724 66.7753 42.6536 65.9904 42.6536 65.2429C42.6536 64.4954 42.6349 63.7852 42.5974 63.1125C42.5599 62.7761 42.5411 62.4771 42.5411 62.2155C42.5411 61.9164 42.5224 61.6174 42.4849 61.3184C42.4849 61.0568 42.4661 60.8139 42.4286 60.5896C42.4286 60.328 42.4286 60.1037 42.4286 59.9169C42.4286 59.73 42.4099 59.5618 42.3723 59.4123C42.3723 59.2628 42.3723 59.132 42.3723 59.0198V58.7395C42.3348 58.7395 42.3161 58.7582 42.3161 58.7956V59.0198C42.3161 59.132 42.2973 59.2628 42.2598 59.4123C42.2598 59.5618 42.2598 59.73 42.2598 59.9169C42.2598 60.1037 42.2411 60.328 42.2036 60.5896C42.2036 60.8139 42.2036 61.0568 42.2036 61.3184C42.1661 61.6174 42.1473 61.9164 42.1473 62.2155C42.1473 62.4771 42.1286 62.7761 42.0911 63.1125C42.0536 63.7852 42.0348 64.4954 42.0348 65.2429C42.0348 65.9904 42.0161 66.7753 41.9786 67.5975V68.887C41.9786 69.0739 41.9598 69.2794 41.9223 69.5037C41.9223 69.7279 41.9223 69.9522 41.9223 70.1764V75.3903C41.9223 75.5025 41.9223 75.6146 41.9223 75.7267C41.9598 75.8388 41.9786 75.9323 41.9786 76.007V77.9132C41.9786 78.3243 41.9786 78.7354 41.9786 79.1466C42.0161 79.5203 42.0348 79.8941 42.0348 80.2678C42.0348 80.679 42.0348 81.0714 42.0348 81.4452C42.0723 81.7815 42.0911 82.0992 42.0911 82.3982C42.1286 82.7346 42.1473 83.0523 42.1473 83.3513C42.1473 83.6503 42.1661 83.9306 42.2036 84.1923C42.2036 84.4913 42.2036 84.7529 42.2036 84.9772C42.2411 85.2014 42.2598 85.407 42.2598 85.5938C42.2598 85.7807 42.2598 85.9489 42.2598 86.0984C42.2973 86.2479 42.3161 86.3787 42.3161 86.4909V86.7712C42.3161 86.8086 42.3348 86.8272 42.3723 86.8272V86.4909C42.3723 86.3787 42.3723 86.2479 42.3723 86.0984C42.4099 85.9489 42.4286 85.7807 42.4286 85.5938C42.4286 85.407 42.4286 85.2014 42.4286 84.9772C42.4661 84.7529 42.4849 84.4913 42.4849 84.1923C42.5224 83.9306 42.5411 83.6503 42.5411 83.3513C42.5411 83.0523 42.5599 82.7346 42.5974 82.3982C42.5974 82.0992 42.5974 81.7815 42.5974 81.4452C42.6349 81.0714 42.6536 80.679 42.6536 80.2678C42.6536 79.8941 42.6536 79.5203 42.6536 79.1466C42.6911 78.7354 42.7099 78.3243 42.7099 77.9132V76.6798C42.7099 76.3808 42.7286 76.1565 42.7661 76.007V70.1764ZM55.0292 78.3056C54.9917 77.9319 54.973 77.5955 54.973 77.2965C54.973 76.9601 54.9542 76.6424 54.9167 76.3434C54.8792 75.7828 54.8229 75.3156 54.7479 74.9418C54.7479 74.8671 54.7292 74.7923 54.6917 74.7176C54.6917 74.6428 54.6917 74.5868 54.6917 74.5494V74.3812L54.6354 74.4373V74.5494C54.6354 74.5868 54.6167 74.6428 54.5792 74.7176C54.5792 74.7923 54.5792 74.8671 54.5792 74.9418C54.5042 75.3156 54.4479 75.7828 54.4104 76.3434C54.3729 76.6424 54.3542 76.9601 54.3542 77.2965C54.3542 77.5955 54.3354 77.9319 54.2979 78.3056V78.8663C54.2979 78.9784 54.2792 79.0905 54.2417 79.2026C54.2417 79.2774 54.2417 79.3521 54.2417 79.4269V81.7815C54.2417 81.8937 54.2604 81.9871 54.2979 82.0619V82.9028C54.2979 83.0897 54.2979 83.2579 54.2979 83.4074C54.3354 83.5569 54.3542 83.7251 54.3542 83.9119C54.3542 84.0988 54.3542 84.267 54.3542 84.4165C54.3917 84.566 54.4104 84.7155 54.4104 84.865C54.4479 85.0145 54.4667 85.164 54.4667 85.3135C54.4667 85.4257 54.4854 85.5378 54.5229 85.6499C54.5229 85.762 54.5229 85.8742 54.5229 85.9863C54.5604 86.0984 54.5792 86.1919 54.5792 86.2666C54.5792 86.3414 54.5792 86.4161 54.5792 86.4909C54.6167 86.5656 54.6354 86.6217 54.6354 86.659V86.7712C54.6354 86.8086 54.6542 86.8272 54.6917 86.8272V86.659C54.6917 86.6217 54.6917 86.5656 54.6917 86.4909C54.7292 86.4161 54.7479 86.3414 54.7479 86.2666C54.7479 86.1919 54.7479 86.0984 54.7479 85.9863C54.7854 85.8742 54.8042 85.762 54.8042 85.6499C54.8417 85.5378 54.8604 85.4257 54.8604 85.3135C54.8604 85.164 54.8792 85.0145 54.9167 84.865C54.9167 84.7155 54.9167 84.566 54.9167 84.4165C54.9542 84.267 54.973 84.0988 54.973 83.9119C54.973 83.7251 54.973 83.5569 54.973 83.4074C55.0105 83.2579 55.0292 83.0897 55.0292 82.9028V82.3422C55.0292 82.1927 55.048 82.0992 55.0855 82.0619V79.4269C55.0855 79.3521 55.0667 79.2774 55.0292 79.2026C55.0292 79.0905 55.0292 78.9784 55.0292 78.8663V78.3056Z" fill="#F4EDE8"/>
<path d="M77.7149 72.8675C78.3524 72.8675 78.8774 72.9983 79.2899 73.2599C78.8774 73.5216 78.5212 73.8766 78.2211 74.3251C77.9586 74.7736 77.7899 75.2595 77.7149 75.7828V84.2483C77.6774 85.4444 77.4148 86.5656 76.9273 87.6121C76.4773 88.6213 75.8585 89.5183 75.071 90.3032C74.2835 91.0507 73.3647 91.6487 72.3146 92.0972C71.2646 92.5457 70.1395 92.77 68.9394 92.77C67.7394 92.77 66.6143 92.5457 65.5643 92.0972C64.5142 91.6487 63.5954 91.0507 62.8079 90.3032C62.0204 89.5183 61.3828 88.6213 60.8953 87.6121C60.4453 86.5656 60.2015 85.4444 60.164 84.2483V75.7828C60.0515 74.6241 59.5265 73.7832 58.5889 73.2599C59.0015 72.9983 59.5265 72.8675 60.164 72.8675V62.0473C60.2015 60.8886 60.4453 59.786 60.8953 58.7395C61.3828 57.693 62.0204 56.796 62.8079 56.0485C63.5954 55.2636 64.5142 54.6469 65.5643 54.1984C66.6143 53.7499 67.7394 53.5256 68.9394 53.5256C70.1395 53.5256 71.2646 53.7499 72.3146 54.1984C73.3647 54.6469 74.2835 55.2636 75.071 56.0485C75.8585 56.796 76.4773 57.693 76.9273 58.7395C77.4148 59.786 77.6774 60.8886 77.7149 62.0473V72.8675ZM63.2017 70.8492C63.2017 70.6623 63.1829 70.4941 63.1454 70.3446C63.1454 70.1578 63.1454 69.9709 63.1454 69.784V68.7188C63.1079 68.0087 63.0892 67.3359 63.0892 66.7005C63.0892 66.0651 63.0704 65.4671 63.0329 64.9065C62.9954 64.6449 62.9767 64.3832 62.9767 64.1216C62.9767 63.86 62.9579 63.617 62.9204 63.3928C62.9204 63.1685 62.9017 62.963 62.8642 62.7761C62.8642 62.5892 62.8642 62.421 62.8642 62.2715C62.8642 62.0846 62.8454 61.9351 62.8079 61.823C62.8079 61.6735 62.8079 61.5614 62.8079 61.4866V61.2063C62.7704 61.2063 62.7516 61.225 62.7516 61.2624V61.4866C62.7516 61.5614 62.7329 61.6735 62.6954 61.823C62.6954 61.9351 62.6954 62.0846 62.6954 62.2715C62.6954 62.421 62.6766 62.5892 62.6391 62.7761C62.6391 62.963 62.6391 63.1685 62.6391 63.3928C62.6016 63.617 62.5829 63.86 62.5829 64.1216C62.5829 64.3832 62.5641 64.6449 62.5266 64.9065C62.4891 65.4671 62.4704 66.0651 62.4704 66.7005C62.4704 67.3359 62.4516 68.0087 62.4141 68.7188V69.784C62.4141 69.9709 62.3954 70.1578 62.3579 70.3446C62.3579 70.4941 62.3579 70.6623 62.3579 70.8492V75.2782C62.3579 75.5398 62.3766 75.7267 62.4141 75.8388V77.4647C62.4141 77.8011 62.4141 78.1374 62.4141 78.4738C62.4516 78.8102 62.4704 79.1279 62.4704 79.4269C62.4704 79.7633 62.4704 80.081 62.4704 80.38C62.5079 80.6416 62.5266 80.9219 62.5266 81.2209C62.5641 81.5199 62.5829 81.8002 62.5829 82.0619C62.5829 82.2861 62.6016 82.5104 62.6391 82.7346C62.6391 82.9589 62.6391 83.1644 62.6391 83.3513C62.6766 83.5382 62.6954 83.7251 62.6954 83.9119C62.6954 84.0988 62.6954 84.267 62.6954 84.4165C62.7329 84.5286 62.7516 84.6221 62.7516 84.6968V84.865C62.7516 84.9024 62.7704 84.9211 62.8079 84.9211V84.6968C62.8079 84.6221 62.8079 84.5286 62.8079 84.4165C62.8454 84.267 62.8642 84.0988 62.8642 83.9119C62.8642 83.7251 62.8642 83.5382 62.8642 83.3513C62.9017 83.1644 62.9204 82.9589 62.9204 82.7346C62.9579 82.5104 62.9767 82.2861 62.9767 82.0619C62.9767 81.8002 62.9954 81.5199 63.0329 81.2209C63.0329 80.9219 63.0329 80.6416 63.0329 80.38C63.0704 80.081 63.0892 79.7633 63.0892 79.4269C63.0892 79.1279 63.0892 78.8102 63.0892 78.4738C63.1267 78.1374 63.1454 77.8011 63.1454 77.4647V75.8388C63.1829 75.7267 63.2017 75.5398 63.2017 75.2782V70.8492ZM72.4834 62.2715C72.4834 61.7856 72.4646 61.1876 72.4271 60.4775C72.3896 59.7674 72.2584 59.0946 72.0333 58.4592C71.8083 57.8238 71.4521 57.2819 70.9645 56.8334C70.5145 56.3475 69.8395 56.1046 68.9394 56.1046C68.0394 56.1046 67.3456 56.3475 66.8581 56.8334C66.4081 57.2819 66.0706 57.8238 65.8455 58.4592C65.6205 59.0946 65.4893 59.7674 65.4518 60.4775C65.4143 61.1876 65.3955 61.7856 65.3955 62.2715V72.8675C66.0331 72.8675 66.5581 72.9983 66.9706 73.2599C66.0331 73.7832 65.508 74.6241 65.3955 75.7828V84.0241C65.3955 84.51 65.4143 85.108 65.4518 85.8181C65.4893 86.4909 65.6205 87.1636 65.8455 87.8364C66.0706 88.4718 66.4081 89.0137 66.8581 89.4622C67.3456 89.9107 68.0394 90.135 68.9394 90.135C69.8395 90.135 70.5145 89.9107 70.9645 89.4622C71.4521 89.0137 71.8083 88.4718 72.0333 87.8364C72.2584 87.1636 72.3896 86.4909 72.4271 85.8181C72.4646 85.108 72.4834 84.51 72.4834 84.0241V75.7828C72.4084 74.6615 71.8833 73.8206 70.9083 73.2599C71.3208 72.9983 71.8458 72.8675 72.4834 72.8675V62.2715ZM75.521 70.8492C75.521 70.6623 75.521 70.4941 75.521 70.3446C75.521 70.1578 75.5023 69.9709 75.4648 69.784V68.7188C75.4648 68.0087 75.446 67.3359 75.4085 66.7005C75.4085 66.0651 75.3898 65.4671 75.3522 64.9065C75.3147 64.6449 75.296 64.3832 75.296 64.1216C75.296 63.86 75.2772 63.617 75.2397 63.3928C75.2397 63.1685 75.221 62.963 75.1835 62.7761C75.1835 62.5892 75.1835 62.421 75.1835 62.2715C75.1835 62.0846 75.1647 61.9351 75.1272 61.823C75.1272 61.6735 75.1272 61.5614 75.1272 61.4866V61.2063C75.0897 61.2063 75.071 61.225 75.071 61.2624V61.4866C75.071 61.5614 75.071 61.6735 75.071 61.823C75.071 61.9351 75.0522 62.0846 75.0147 62.2715C75.0147 62.421 74.996 62.5892 74.9585 62.7761C74.9585 62.963 74.9585 63.1685 74.9585 63.3928C74.921 63.617 74.9022 63.86 74.9022 64.1216C74.9022 64.3832 74.8835 64.6449 74.846 64.9065C74.8085 65.4671 74.7897 66.0651 74.7897 66.7005C74.7897 67.3359 74.771 68.0087 74.7335 68.7188V70.8492C74.696 71.223 74.6772 71.5967 74.6772 71.9705C74.6772 72.3442 74.6772 72.718 74.6772 73.0917C74.6772 73.4655 74.6772 73.8392 74.6772 74.213C74.6772 74.5494 74.696 74.9044 74.7335 75.2782V77.4647C74.7335 77.8011 74.7335 78.1374 74.7335 78.4738C74.771 78.8102 74.7897 79.1279 74.7897 79.4269C74.7897 79.7633 74.7897 80.081 74.7897 80.38C74.8272 80.6416 74.846 80.9219 74.846 81.2209C74.8835 81.5199 74.9022 81.8002 74.9022 82.0619C74.9022 82.2861 74.921 82.5104 74.9585 82.7346C74.9585 82.9589 74.9585 83.1644 74.9585 83.3513C74.996 83.5382 75.0147 83.7251 75.0147 83.9119C75.0522 84.0988 75.071 84.267 75.071 84.4165C75.071 84.5286 75.071 84.6221 75.071 84.6968V84.865C75.071 84.9024 75.0897 84.9211 75.1272 84.9211V84.6968C75.1272 84.6221 75.1272 84.5286 75.1272 84.4165C75.1647 84.267 75.1835 84.0988 75.1835 83.9119C75.1835 83.7251 75.1835 83.5382 75.1835 83.3513C75.221 83.1644 75.2397 82.9589 75.2397 82.7346C75.2772 82.5104 75.296 82.2861 75.296 82.0619C75.296 81.8002 75.3147 81.5199 75.3522 81.2209C75.3522 80.9219 75.3522 80.6416 75.3522 80.38C75.3898 80.081 75.4085 79.7633 75.4085 79.4269C75.4085 79.1279 75.4085 78.8102 75.4085 78.4738C75.446 78.1374 75.4648 77.8011 75.4648 77.4647V76.3995C75.4648 76.3247 75.4648 76.2313 75.4648 76.1192C75.5023 76.007 75.521 75.9136 75.521 75.8388V70.8492Z" fill="#F4EDE8"/>
<path d="M98.5899 65.6353C98.5899 67.3172 98.1774 68.8309 97.3523 70.1764C96.5273 71.522 95.421 72.5685 94.0334 73.316C94.7085 73.8392 95.3272 74.4559 95.8898 75.1661C96.4523 75.8388 96.9211 76.5863 97.2961 77.4086C97.7086 78.2309 98.0274 79.0718 98.2524 79.9315C98.4774 80.7911 98.5899 81.632 98.5899 82.4543V86.0424C98.5524 87.2384 98.3086 88.3596 97.8586 89.4062C97.4086 90.4153 96.7898 91.3123 96.0023 92.0972C95.2147 92.8447 94.2959 93.4427 93.2459 93.8912C92.1958 94.3771 91.0708 94.62 89.8707 94.62H84.583C84.3205 94.62 84.0954 94.5266 83.9079 94.3397C83.7579 94.1528 83.6829 93.9286 83.6829 93.667C83.6829 93.9286 83.5892 94.1528 83.4017 94.3397C83.2141 94.5266 83.0079 94.62 82.7829 94.62H79.8015C79.8015 94.2837 79.8577 94.0407 79.9702 93.8912C80.1203 93.7417 80.2703 93.5735 80.4203 93.3867C80.5703 93.2371 80.7015 93.0129 80.814 92.7139C80.964 92.4149 81.039 91.9477 81.039 91.3123V75.6706C80.9265 74.5494 80.4015 73.7271 79.464 73.2039C79.9515 72.9049 80.4765 72.7554 81.039 72.7554V54.3105C81.039 53.6751 80.964 53.208 80.814 52.9089C80.7015 52.6099 80.5703 52.3857 80.4203 52.2362C80.2703 52.0493 80.1203 51.8811 79.9702 51.7316C79.8577 51.5821 79.8015 51.3392 79.8015 51.0028H82.7829C83.0079 51.0028 83.2141 51.0962 83.4017 51.2831C83.5892 51.4326 83.6829 51.6382 83.6829 51.8998C83.6829 51.3018 83.9829 51.0028 84.583 51.0028H89.8707C91.0708 51.0028 92.1958 51.227 93.2459 51.6756C94.2959 52.1241 95.2147 52.7408 96.0023 53.5256C96.7898 54.2732 97.4086 55.1702 97.8586 56.2167C98.3086 57.2632 98.5524 58.3658 98.5899 59.5244V65.6353ZM84.0767 69.784C84.0767 69.5224 84.0579 69.2794 84.0204 69.0552C84.0204 68.7935 84.0204 68.5506 84.0204 68.3264V66.8687C83.9829 65.8969 83.9642 64.9812 83.9642 64.1216C83.9642 63.262 83.9454 62.4584 83.9079 61.7109C83.8704 61.2998 83.8517 60.926 83.8517 60.5896C83.8517 60.2532 83.8329 59.9355 83.7954 59.6365C83.7954 59.3375 83.7767 59.0572 83.7392 58.7956C83.7392 58.4966 83.7392 58.2536 83.7392 58.0668C83.7392 57.8425 83.7204 57.637 83.6829 57.4501C83.6829 57.2632 83.6829 57.1137 83.6829 57.0016V56.6652C83.6454 56.7026 83.6267 56.7399 83.6267 56.7773V57.0016C83.6267 57.1137 83.6079 57.2632 83.5704 57.4501C83.5704 57.637 83.5704 57.8425 83.5704 58.0668C83.5704 58.2536 83.5517 58.4966 83.5142 58.7956C83.5142 59.0572 83.5142 59.3375 83.5142 59.6365C83.4767 59.9355 83.4579 60.2532 83.4579 60.5896C83.4579 60.926 83.4392 61.2998 83.4017 61.7109C83.3642 62.4584 83.3454 63.262 83.3454 64.1216C83.3454 64.9812 83.3267 65.8969 83.2892 66.8687V68.3264C83.2892 68.5506 83.2892 68.7935 83.2892 69.0552C83.2892 69.2794 83.2704 69.5224 83.2329 69.784V75.7828C83.2329 75.9323 83.2329 76.0631 83.2329 76.1752C83.2704 76.2873 83.2892 76.4182 83.2892 76.5677V78.6981C83.2892 79.1839 83.2892 79.6698 83.2892 80.1557C83.3267 80.6042 83.3454 81.034 83.3454 81.4452C83.3454 81.8563 83.3454 82.2674 83.3454 82.6786C83.3829 83.0897 83.4017 83.5008 83.4017 83.9119C83.4392 84.0988 83.4579 84.2857 83.4579 84.4726C83.4579 84.6221 83.4579 84.7903 83.4579 84.9772C83.4579 85.164 83.4579 85.3322 83.4579 85.4817C83.4954 85.6312 83.5142 85.7807 83.5142 85.9302C83.5142 86.2292 83.5142 86.5282 83.5142 86.8272C83.5517 87.0889 83.5704 87.3318 83.5704 87.5561C83.5704 87.7803 83.5704 87.9859 83.5704 88.1728C83.6079 88.3223 83.6267 88.4531 83.6267 88.5652V88.8455C83.6267 88.8829 83.6454 88.9203 83.6829 88.9576V88.5652C83.6829 88.4531 83.6829 88.3223 83.6829 88.1728C83.7204 87.9859 83.7392 87.7803 83.7392 87.5561C83.7392 87.3318 83.7392 87.0889 83.7392 86.8272C83.7767 86.5282 83.7954 86.2292 83.7954 85.9302C83.8329 85.7807 83.8517 85.6312 83.8517 85.4817C83.8517 85.3322 83.8517 85.164 83.8517 84.9772C83.8517 84.7903 83.8517 84.6221 83.8517 84.4726C83.8892 84.2857 83.9079 84.0988 83.9079 83.9119C83.9079 83.5008 83.9079 83.0897 83.9079 82.6786C83.9454 82.2674 83.9642 81.8563 83.9642 81.4452C83.9642 81.034 83.9642 80.6042 83.9642 80.1557C84.0017 79.6698 84.0204 79.1839 84.0204 78.6981V77.2965C84.0204 76.9601 84.0392 76.7172 84.0767 76.5677V69.784ZM95.6647 84.9211C95.6272 85.0332 95.6085 85.2201 95.6085 85.4817V86.4909C95.6085 86.6777 95.5897 86.8459 95.5522 86.9954C95.5522 87.1449 95.5522 87.2944 95.5522 87.4439C95.5522 87.5934 95.5335 87.7243 95.496 87.8364C95.496 87.9485 95.496 88.0606 95.496 88.1728V88.341C95.4585 88.3783 95.4397 88.4344 95.4397 88.5091V88.7895C95.4022 88.8268 95.3835 88.8642 95.3835 88.9016V89.0137C95.3835 89.0511 95.3647 89.0885 95.3272 89.1258C95.3272 89.1258 95.3272 89.1445 95.3272 89.1819C95.3272 89.2193 95.3085 89.2567 95.271 89.294H95.3272C95.3272 89.294 95.346 89.2567 95.3835 89.1819C95.3835 89.1819 95.4022 89.1445 95.4397 89.0698C95.4772 89.0324 95.496 88.995 95.496 88.9576C95.5335 88.9203 95.5522 88.8829 95.5522 88.8455C95.5897 88.8081 95.6085 88.7708 95.6085 88.7334C95.646 88.696 95.6647 88.64 95.6647 88.5652C95.7398 88.4905 95.7773 88.397 95.7773 88.2849C95.8523 88.1354 95.9273 87.8738 96.0023 87.5C96.0773 87.2757 96.1148 87.1262 96.1148 87.0515C96.1523 86.9767 96.171 86.902 96.171 86.8272C96.171 86.7151 96.1898 86.6217 96.2273 86.5469C96.2273 86.4722 96.2273 86.3974 96.2273 86.3227C96.2648 86.2105 96.2835 86.1171 96.2835 86.0424C96.321 85.9302 96.3398 85.762 96.3398 85.5378C96.3773 85.3509 96.396 85.164 96.396 84.9772C96.396 84.7903 96.4148 84.6034 96.4523 84.4165V82.0619C96.4523 81.875 96.4335 81.6881 96.396 81.5012C96.396 81.3144 96.3773 81.1275 96.3398 80.9406C96.3398 80.7163 96.321 80.5482 96.2835 80.436C96.2835 80.3613 96.2648 80.2865 96.2273 80.2118C96.2273 80.0996 96.2273 80.0062 96.2273 79.9315C96.1898 79.8567 96.171 79.782 96.171 79.7072C96.171 79.5951 96.1523 79.5016 96.1148 79.4269C96.1148 79.3521 96.096 79.2774 96.0585 79.2026C96.0585 79.1279 96.0585 79.0531 96.0585 78.9784C95.9835 78.7541 95.946 78.6233 95.946 78.5859C95.9085 78.4738 95.8523 78.343 95.7773 78.1935C95.7773 78.0814 95.7398 77.9879 95.6647 77.9132C95.6647 77.8011 95.6272 77.7076 95.5522 77.6329C95.4772 77.4834 95.421 77.3712 95.3835 77.2965C95.346 77.2591 95.3272 77.2217 95.3272 77.1844H95.271C95.271 77.1844 95.2897 77.2217 95.3272 77.2965C95.3272 77.3339 95.3272 77.3712 95.3272 77.4086C95.3647 77.4086 95.3835 77.4273 95.3835 77.4647C95.3835 77.5394 95.4022 77.6142 95.4397 77.6889V77.9692C95.4772 78.044 95.496 78.1374 95.496 78.2496C95.496 78.4364 95.5147 78.5673 95.5522 78.642V79.0344C95.5897 79.1839 95.6085 79.3334 95.6085 79.483C95.6085 79.6325 95.6085 79.8006 95.6085 79.9875V80.4921C95.6085 80.5668 95.6085 80.6603 95.6085 80.7724C95.646 80.8472 95.6647 80.9219 95.6647 80.9967V84.9211ZM93.3584 82.4543C93.3584 81.9684 93.3396 81.277 93.3021 80.38C93.2646 79.483 93.1334 78.5859 92.9084 77.6889C92.6834 76.7919 92.3271 76.0257 91.8396 75.3903C91.3895 74.7176 90.7145 74.3812 89.8145 74.3812H87.7894C87.3769 74.3812 87.0206 74.5307 86.7206 74.8297C86.4206 75.1287 86.2705 75.4838 86.2705 75.8949V90.4714C86.2705 90.8825 86.4206 91.2376 86.7206 91.5366C87.0206 91.7982 87.3769 91.9477 87.7894 91.9851H89.8145C90.7145 91.9851 91.3895 91.7608 91.8396 91.3123C92.3271 90.8264 92.6834 90.2658 92.9084 89.6304C93.1334 88.995 93.2646 88.3223 93.3021 87.6121C93.3396 86.902 93.3584 86.304 93.3584 85.8181V82.4543ZM93.3584 59.7487C93.3584 59.2628 93.3396 58.6835 93.3021 58.0107C93.2646 57.3006 93.1334 56.6278 92.9084 55.9924C92.6834 55.357 92.3271 54.8151 91.8396 54.3666C91.3895 53.8807 90.7145 53.6378 89.8145 53.6378H87.7894C87.3769 53.6378 87.0206 53.7873 86.7206 54.0863C86.4206 54.3853 86.2705 54.7403 86.2705 55.1515V70.2325C86.2705 70.6436 86.4206 70.9987 86.7206 71.2977C87.0206 71.5967 87.3769 71.7462 87.7894 71.7462H89.8145C90.7145 71.7462 91.3895 71.522 91.8396 71.0735C92.3271 70.625 92.6834 70.083 92.9084 69.4476C93.1334 68.7749 93.2646 68.1021 93.3021 67.4293C93.3396 66.7192 93.3584 66.1212 93.3584 65.6353V59.7487ZM95.8898 67.149C95.9648 66.9248 96.0023 66.7753 96.0023 66.7005C96.0773 66.551 96.1148 66.4015 96.1148 66.252C96.1523 66.1773 96.171 66.1025 96.171 66.0278C96.171 65.9156 96.1898 65.8222 96.2273 65.7474C96.2273 65.6727 96.2273 65.5979 96.2273 65.5232C96.2648 65.4111 96.2835 65.2989 96.2835 65.1868C96.321 65.0747 96.3398 64.8878 96.3398 64.6262C96.3773 64.4393 96.396 64.2524 96.396 64.0655C96.396 63.8787 96.4148 63.6918 96.4523 63.5049V62.2715C96.4523 61.8604 96.4523 61.4679 96.4523 61.0942C96.4523 60.6831 96.4335 60.2906 96.396 59.9169C96.3585 59.8047 96.3398 59.7113 96.3398 59.6365C96.3398 59.5244 96.321 59.431 96.2835 59.3562C96.2835 59.0946 96.2648 58.9077 96.2273 58.7956C96.1898 58.6087 96.1523 58.4405 96.1148 58.291C96.1148 58.1415 96.096 57.992 96.0585 57.8425C95.9835 57.6183 95.946 57.4688 95.946 57.394C95.871 57.2445 95.8335 57.1324 95.8335 57.0576C95.7585 56.9081 95.7023 56.796 95.6647 56.7213C95.6647 56.6091 95.6272 56.5157 95.5522 56.4409C95.5147 56.3288 95.4585 56.198 95.3835 56.0485L95.271 55.9364V55.9924C95.271 56.0298 95.271 56.0485 95.271 56.0485C95.3085 56.0485 95.3272 56.0672 95.3272 56.1046C95.3647 56.1419 95.3835 56.198 95.3835 56.2727C95.3835 56.3475 95.4022 56.4222 95.4397 56.497V56.7773C95.4772 56.8521 95.496 56.9642 95.496 57.1137C95.496 57.1884 95.496 57.2632 95.496 57.3379C95.5335 57.3753 95.5522 57.4314 95.5522 57.5061V57.8986C95.5897 58.0481 95.6085 58.1976 95.6085 58.3471C95.6085 58.4966 95.6085 58.6648 95.6085 58.8517V59.4123C95.6085 59.487 95.6085 59.5805 95.6085 59.6926C95.646 59.7674 95.6647 59.8421 95.6647 59.9169V64.0655C95.6272 64.1777 95.6085 64.3645 95.6085 64.6262V65.6914C95.6085 65.8783 95.5897 66.0464 95.5522 66.1959C95.5522 66.3455 95.5522 66.495 95.5522 66.6445C95.5522 66.794 95.5335 66.9435 95.496 67.093C95.496 67.2051 95.496 67.3172 95.496 67.4293C95.496 67.6162 95.4772 67.7283 95.4397 67.7657V68.1021C95.4022 68.1021 95.3835 68.1395 95.3835 68.2142V68.3264C95.3835 68.3637 95.3647 68.4011 95.3272 68.4385C95.3272 68.4385 95.3272 68.4572 95.3272 68.4945C95.3272 68.5319 95.3085 68.5693 95.271 68.6067L95.3835 68.4945C95.3835 68.4572 95.3835 68.4385 95.3835 68.4385C95.421 68.4011 95.4397 68.3637 95.4397 68.3264C95.4772 68.3264 95.496 68.289 95.496 68.2142C95.5335 68.2142 95.5522 68.1769 95.5522 68.1021C95.5897 68.1021 95.6085 68.0647 95.6085 67.99C95.646 67.9526 95.6647 67.8965 95.6647 67.8218C95.7398 67.747 95.7773 67.6536 95.7773 67.5415C95.8523 67.3172 95.8898 67.1864 95.8898 67.149Z" fill="#F4EDE8"/>
<path d="M119.867 89.4062C120.017 90.0415 120.186 90.5087 120.373 90.8077C120.561 91.1067 120.748 91.3497 120.936 91.5366C121.123 91.7234 121.292 91.8916 121.442 92.0411C121.592 92.1906 121.705 92.4336 121.78 92.77H118.798C118.536 92.77 118.292 92.6765 118.067 92.4896C117.879 92.3028 117.767 92.0785 117.729 91.8169C117.767 92.0785 117.711 92.3028 117.561 92.4896C117.411 92.6765 117.223 92.77 116.998 92.77H114.017C113.942 92.4336 113.961 92.1906 114.073 92.0411C114.186 91.8916 114.298 91.7421 114.411 91.5926C114.523 91.4057 114.617 91.1628 114.692 90.8638C114.767 90.5274 114.748 90.0229 114.636 89.3501V89.294L113.398 82.9589C113.323 82.5851 113.117 82.2674 112.779 82.0058C112.442 81.7068 112.067 81.5573 111.654 81.5573H107.773C107.36 81.5573 106.985 81.7068 106.648 82.0058C106.31 82.2674 106.104 82.5851 106.029 82.9589L104.848 89.294V89.3501C104.735 90.0229 104.698 90.5274 104.735 90.8638C104.81 91.1628 104.904 91.4057 105.016 91.5926C105.166 91.7421 105.279 91.8916 105.354 92.0411C105.466 92.1906 105.504 92.4336 105.466 92.77H102.485C102.222 92.77 102.016 92.6765 101.866 92.4896C101.716 92.3028 101.66 92.0785 101.697 91.8169C101.66 92.0785 101.547 92.3028 101.36 92.4896C101.172 92.6765 100.947 92.77 100.685 92.77H97.7035C97.741 92.4336 97.8347 92.1906 97.9847 92.0411C98.1347 91.8916 98.3035 91.7234 98.491 91.5366C98.6785 91.3497 98.866 91.1067 99.0535 90.8077C99.241 90.5087 99.4098 90.0415 99.5598 89.4062L102.091 75.7828C102.166 75.2595 102.11 74.7736 101.922 74.3251C101.735 73.8766 101.435 73.5216 101.022 73.2599C101.622 72.9983 102.166 72.8675 102.654 72.8675L105.691 56.8894C105.804 56.2541 105.823 55.7869 105.748 55.4879C105.673 55.1515 105.579 54.9085 105.466 54.759C105.354 54.5722 105.241 54.404 105.129 54.2545C105.016 54.105 104.998 53.862 105.073 53.5256H108.841C109.404 53.6004 109.685 53.9181 109.685 54.4787C109.685 54.2171 109.76 54.0115 109.91 53.862C110.098 53.6751 110.304 53.563 110.529 53.5256H114.354C114.429 53.862 114.411 54.105 114.298 54.2545C114.223 54.404 114.129 54.5722 114.017 54.759C113.904 54.9085 113.81 55.1515 113.735 55.4879C113.66 55.7869 113.679 56.2541 113.792 56.8894L116.773 72.8675C117.073 72.8675 117.354 72.9049 117.617 72.9796C117.879 73.0544 118.142 73.1478 118.404 73.2599C117.579 73.7832 117.223 74.6241 117.336 75.7828L119.867 89.4062ZM106.366 69.3355C106.441 69.1112 106.479 68.9057 106.479 68.7188C106.516 68.4945 106.554 68.289 106.591 68.1021C106.779 67.2425 106.929 66.4389 107.041 65.6914C107.154 64.9065 107.266 64.1964 107.379 63.561C107.454 63.262 107.491 62.963 107.491 62.664C107.529 62.365 107.566 62.066 107.604 61.7669C107.641 61.5053 107.679 61.2624 107.716 61.0381C107.754 60.8139 107.791 60.6083 107.829 60.4214C107.866 60.2346 107.885 60.0664 107.885 59.9169C107.885 59.73 107.904 59.5805 107.941 59.4684V59.2441L107.885 59.4684C107.848 59.5805 107.81 59.7113 107.773 59.8608C107.735 60.0103 107.698 60.1785 107.66 60.3654C107.585 60.5522 107.529 60.7765 107.491 61.0381C107.454 61.2624 107.398 61.4866 107.323 61.7109C107.248 62.0099 107.173 62.3089 107.098 62.6079C107.06 62.9069 107.004 63.2059 106.929 63.5049C106.741 64.1403 106.554 64.8317 106.366 65.5793C106.216 66.2894 106.048 67.0743 105.86 67.9339C105.86 68.1582 105.841 68.3637 105.804 68.5506C105.766 68.7375 105.71 68.9431 105.635 69.1673C105.598 69.3916 105.56 69.6158 105.523 69.8401C105.485 70.0269 105.448 70.2325 105.41 70.4568C105.298 70.8679 105.185 71.2977 105.073 71.7462C104.998 72.1947 104.923 72.6432 104.848 73.0917C104.773 73.5029 104.679 73.9327 104.566 74.3812C104.491 74.8297 104.416 75.2595 104.341 75.6706C104.304 75.7828 104.285 75.8949 104.285 76.007C104.285 76.0818 104.266 76.1752 104.229 76.2873C104.154 76.5863 104.116 76.8106 104.116 76.9601C104.004 77.3339 103.929 77.745 103.891 78.1935C103.816 78.6046 103.741 79.0158 103.666 79.4269C103.591 79.838 103.535 80.2118 103.497 80.5482C103.385 81.4078 103.273 82.1179 103.16 82.6786C103.085 82.9776 103.029 83.2766 102.991 83.5756C102.954 83.8746 102.916 84.1736 102.879 84.4726C102.804 84.7342 102.747 84.9958 102.71 85.2575C102.71 85.4817 102.691 85.6873 102.654 85.8742C102.616 86.061 102.598 86.2292 102.598 86.3787C102.598 86.5282 102.579 86.6591 102.541 86.7712C102.541 86.8459 102.523 86.902 102.485 86.9394C102.485 86.9394 102.485 86.9581 102.485 86.9954V87.0515C102.523 87.0515 102.541 87.0328 102.541 86.9954C102.541 86.9207 102.56 86.8459 102.598 86.7712C102.635 86.6964 102.654 86.5843 102.654 86.4348C102.691 86.2479 102.748 86.061 102.823 85.8742C102.898 85.6873 102.954 85.4817 102.991 85.2575C103.066 85.0332 103.141 84.7903 103.216 84.5286C103.291 84.267 103.348 83.9867 103.385 83.6877C103.46 83.3887 103.516 83.0897 103.554 82.7907C103.629 82.4917 103.704 82.174 103.779 81.8376C103.891 81.4639 103.985 81.0901 104.06 80.7163C104.135 80.3426 104.21 79.9501 104.285 79.539C104.398 79.1279 104.51 78.7168 104.623 78.3056C104.66 78.1187 104.698 77.9319 104.735 77.745C104.773 77.5207 104.81 77.3152 104.848 77.1283L105.016 76.4555C105.054 76.3434 105.073 76.2313 105.073 76.1192C105.073 76.007 105.091 75.8949 105.129 75.7828C105.204 75.3716 105.298 74.9605 105.41 74.5494C105.523 74.1009 105.616 73.6524 105.691 73.2039C105.766 72.7927 105.841 72.3629 105.916 71.9144C105.991 71.4659 106.066 71.0361 106.141 70.6249C106.179 70.4007 106.216 70.1764 106.254 69.9522C106.291 69.7279 106.329 69.5224 106.366 69.3355ZM111.148 78.9223C111.56 78.8849 111.879 78.7354 112.104 78.4738C112.367 78.1748 112.46 77.8197 112.385 77.4086L112.048 75.7828C111.898 75.2595 111.635 74.7736 111.26 74.3251C110.923 73.8766 110.51 73.5216 110.023 73.2599C110.473 72.9983 110.96 72.8675 111.485 72.8675L109.685 63.2807L107.885 72.8675C108.373 72.8675 108.879 72.9983 109.404 73.2599C108.879 73.5216 108.429 73.8766 108.054 74.3251C107.716 74.7736 107.491 75.2595 107.379 75.7828L107.098 77.4086C107.023 77.8197 107.098 78.1748 107.323 78.4738C107.548 78.7354 107.848 78.8849 108.223 78.9223H111.148ZM116.829 86.7712C116.829 86.8459 116.829 86.902 116.829 86.9394C116.867 86.9394 116.886 86.9581 116.886 86.9954V86.7712C116.848 86.6591 116.829 86.5282 116.829 86.3787C116.829 86.2292 116.811 86.061 116.773 85.8742C116.736 85.6873 116.698 85.4817 116.661 85.2575C116.661 84.9958 116.623 84.7342 116.548 84.4726C116.511 84.1736 116.473 83.8746 116.436 83.5756C116.398 83.2766 116.342 82.9776 116.267 82.6786C116.154 82.1179 116.042 81.4078 115.929 80.5482C115.854 80.2118 115.779 79.838 115.704 79.4269C115.667 79.0158 115.611 78.6046 115.536 78.1935C115.461 77.9692 115.404 77.7637 115.367 77.5768C115.367 77.3899 115.329 77.1844 115.254 76.9601C115.254 76.8106 115.217 76.5863 115.142 76.2873C115.142 76.1752 115.123 76.0818 115.086 76.007C115.086 75.8949 115.086 75.7828 115.086 75.6706C115.011 75.2595 114.917 74.8297 114.804 74.3812C114.729 73.9327 114.654 73.5029 114.579 73.0917C114.504 72.6432 114.411 72.1947 114.298 71.7462C114.223 71.2977 114.129 70.8679 114.017 70.4568C113.979 70.2325 113.942 70.0269 113.904 69.8401C113.867 69.6158 113.829 69.3916 113.792 69.1673C113.717 68.9431 113.66 68.7375 113.623 68.5506C113.585 68.3637 113.548 68.1582 113.51 67.9339C113.323 67.0743 113.135 66.2894 112.948 65.5793C112.798 64.8317 112.667 64.1403 112.554 63.5049C112.479 63.2059 112.404 62.9069 112.329 62.6079C112.254 62.3089 112.179 62.0099 112.104 61.7109C112.029 61.4866 111.954 61.2624 111.879 61.0381C111.842 60.7765 111.785 60.5522 111.71 60.3654C111.673 60.1785 111.635 60.0103 111.598 59.8608C111.56 59.7113 111.523 59.5805 111.485 59.4684L111.429 59.2441V59.4684C111.467 59.6552 111.523 59.9729 111.598 60.4214C111.598 60.6083 111.617 60.8139 111.654 61.0381C111.692 61.2624 111.729 61.5053 111.767 61.7669C111.804 62.066 111.842 62.365 111.879 62.664C111.917 62.963 111.973 63.262 112.048 63.561C112.16 64.1964 112.273 64.9065 112.385 65.6914C112.498 66.4389 112.629 67.2425 112.779 68.1021C112.817 68.289 112.835 68.4945 112.835 68.7188C112.873 68.9057 112.929 69.1112 113.004 69.3355C113.042 69.5224 113.079 69.7279 113.117 69.9522C113.154 70.1764 113.192 70.4007 113.229 70.6249C113.304 71.0361 113.379 71.4659 113.454 71.9144C113.567 72.3629 113.66 72.7927 113.735 73.2039C113.81 73.6524 113.904 74.1009 114.017 74.5494C114.129 74.9605 114.223 75.3716 114.298 75.7828C114.336 75.8949 114.354 76.007 114.354 76.1192C114.354 76.2313 114.373 76.3434 114.411 76.4555L114.579 77.1283C114.617 77.3152 114.654 77.5207 114.692 77.745C114.729 77.9319 114.767 78.1187 114.804 78.3056C114.917 78.7168 115.011 79.1279 115.086 79.539C115.161 79.9501 115.236 80.3426 115.311 80.7163C115.386 81.0901 115.461 81.4639 115.536 81.8376C115.648 82.174 115.742 82.4917 115.817 82.7907C115.892 83.0897 115.967 83.3887 116.042 83.6877C116.117 83.9867 116.192 84.267 116.267 84.5286C116.379 85.0519 116.492 85.5004 116.604 85.8742C116.679 86.061 116.717 86.2479 116.717 86.4348C116.754 86.5843 116.792 86.6964 116.829 86.7712Z" fill="#F4EDE8"/>
<path d="M143.469 95.1246C143.882 95.1994 144.163 95.3302 144.313 95.5171C144.5 95.7039 144.632 95.8908 144.707 96.0777C144.782 96.3019 144.819 96.5449 144.819 96.8065C143.619 96.8065 142.494 96.657 141.444 96.358C140.394 96.059 139.456 95.5731 138.631 94.9004C137.844 94.2276 137.206 93.3493 136.719 92.2654C136.269 91.1815 136.044 89.8547 136.044 88.2849V80.6042C136.044 80.1183 136.025 79.5203 135.987 78.8102C135.95 78.1001 135.819 77.4273 135.594 76.7919C135.369 76.1565 135.012 75.6146 134.525 75.1661C134.075 74.6802 133.4 74.4373 132.5 74.4373H130.193C129.856 74.512 129.556 74.6989 129.293 74.9979C129.068 75.2595 128.956 75.5772 128.956 75.951V89.3501C128.956 90.0229 129.012 90.5274 129.125 90.8638C129.275 91.1628 129.425 91.4057 129.575 91.5926C129.725 91.7421 129.856 91.8916 129.968 92.0411C130.118 92.1906 130.193 92.4336 130.193 92.77H127.212C126.987 92.77 126.781 92.6765 126.593 92.4896C126.406 92.3028 126.312 92.0972 126.312 91.8729C126.312 92.0972 126.218 92.3028 126.031 92.4896C125.881 92.6765 125.674 92.77 125.412 92.77H122.487C122.487 92.4336 122.543 92.1906 122.655 92.0411C122.805 91.8916 122.956 91.7421 123.106 91.5926C123.256 91.4057 123.387 91.1628 123.499 90.8638C123.649 90.5648 123.724 90.0976 123.724 89.4622V75.7828C123.612 74.6241 123.087 73.7832 122.149 73.2599C122.562 72.9983 123.087 72.8675 123.724 72.8675V56.8334C123.724 56.198 123.649 55.7308 123.499 55.4318C123.387 55.1328 123.256 54.9085 123.106 54.759C122.956 54.5722 122.805 54.404 122.655 54.2545C122.543 54.105 122.487 53.862 122.487 53.5256H125.468C125.693 53.5256 125.899 53.6191 126.087 53.806C126.274 53.9555 126.368 54.161 126.368 54.4227C126.368 53.8246 126.668 53.5256 127.268 53.5256H132.556C133.756 53.5256 134.881 53.7499 135.931 54.1984C136.981 54.6469 137.9 55.2636 138.688 56.0485C139.475 56.796 140.094 57.693 140.544 58.7395C140.994 59.786 141.238 60.8886 141.275 62.0473V65.6914C141.275 67.2612 140.9 68.7001 140.15 70.0083C139.4 71.3164 138.388 72.3629 137.112 73.1478C138.388 73.8953 139.4 74.9418 140.15 76.2873C140.9 77.5955 141.275 79.0344 141.275 80.6042V88.0606C141.275 88.8455 141.275 89.6491 141.275 90.4714C141.313 91.2562 141.406 91.9851 141.556 92.6578C141.706 93.2932 141.931 93.8352 142.231 94.2837C142.531 94.7322 142.944 95.0125 143.469 95.1246ZM138.35 64.7383C138.312 64.8131 138.294 64.9065 138.294 65.0186V66.3081C138.256 66.4576 138.237 66.6071 138.237 66.7566C138.237 66.8687 138.237 66.9808 138.237 67.093C138.237 67.1677 138.219 67.2238 138.181 67.2612C138.181 67.2985 138.181 67.3546 138.181 67.4293V67.7657C138.144 67.8405 138.125 67.9339 138.125 68.046C138.125 68.1208 138.106 68.1955 138.069 68.2703C138.069 68.345 138.05 68.4011 138.012 68.4385V68.5506L137.956 68.6627C137.956 68.6627 137.994 68.644 138.069 68.6067V68.5506L138.125 68.4945C138.162 68.4572 138.181 68.4385 138.181 68.4385C138.181 68.4011 138.2 68.3637 138.237 68.3264C138.275 68.2516 138.312 68.1769 138.35 68.1021C138.387 67.99 138.425 67.8965 138.463 67.8218C138.5 67.747 138.519 67.7097 138.519 67.7097C138.519 67.6723 138.537 67.6162 138.575 67.5415C138.613 67.4667 138.631 67.4107 138.631 67.3733C138.631 67.2985 138.65 67.2238 138.688 67.149C138.725 67.0743 138.744 67.0182 138.744 66.9808C138.744 66.9435 138.763 66.8874 138.8 66.8126C138.8 66.7379 138.8 66.6818 138.8 66.6445C138.838 66.5697 138.856 66.495 138.856 66.4202C138.894 66.2707 138.913 66.1212 138.913 65.9717C138.95 65.8222 138.988 65.6727 139.025 65.5232C139.063 65.4111 139.081 65.2429 139.081 65.0186C139.081 64.9439 139.081 64.8691 139.081 64.7944C139.119 64.7196 139.138 64.6449 139.138 64.5701V62.6079C139.138 62.3836 139.119 62.2155 139.081 62.1033V61.8791C139.081 61.8043 139.063 61.7669 139.025 61.7669C139.025 61.7296 139.025 61.6735 139.025 61.5988C139.025 61.4119 138.988 61.1316 138.913 60.7578C138.875 60.6831 138.856 60.6083 138.856 60.5336C138.856 60.4588 138.838 60.3841 138.8 60.3093C138.8 60.2719 138.781 60.2532 138.744 60.2532C138.744 60.2159 138.744 60.1785 138.744 60.1411C138.744 60.1037 138.725 60.0851 138.688 60.0851C138.688 60.0477 138.688 60.0103 138.688 59.9729C138.65 59.8982 138.631 59.8421 138.631 59.8047C138.631 59.7674 138.613 59.7113 138.575 59.6365C138.537 59.5618 138.519 59.5057 138.519 59.4684C138.519 59.431 138.5 59.3749 138.463 59.3002C138.425 59.2628 138.406 59.2254 138.406 59.188C138.406 59.1507 138.387 59.1133 138.35 59.0759C138.275 58.9264 138.237 58.8517 138.237 58.8517C138.2 58.8143 138.181 58.7956 138.181 58.7956C138.181 58.7582 138.162 58.7208 138.125 58.6835C138.087 58.6461 138.069 58.6087 138.069 58.5713C138.031 58.534 138.012 58.4966 138.012 58.4592H137.956C137.956 58.4592 137.975 58.4966 138.012 58.5713V58.6835C138.05 58.7208 138.069 58.7956 138.069 58.9077C138.069 58.9451 138.069 58.9825 138.069 59.0198C138.106 59.0198 138.125 59.0572 138.125 59.132C138.125 59.2441 138.144 59.3375 138.181 59.4123V59.6926C138.181 59.7674 138.181 59.8234 138.181 59.8608C138.219 59.8982 138.237 59.9542 138.237 60.029C138.237 60.3654 138.256 60.627 138.294 60.8139V61.7109C138.331 61.8978 138.35 62.1968 138.35 62.6079V64.7383ZM126.762 70.5128C126.762 70.3259 126.743 70.1204 126.706 69.8961C126.706 69.6719 126.706 69.4476 126.706 69.2234V67.99C126.668 67.1677 126.649 66.3828 126.649 65.6353C126.649 64.8878 126.631 64.1777 126.593 63.5049C126.556 63.2059 126.537 62.9069 126.537 62.6079C126.537 62.3089 126.518 62.0286 126.481 61.7669C126.481 61.4679 126.462 61.2063 126.424 60.9821C126.424 60.7578 126.424 60.5522 126.424 60.3654C126.424 60.1785 126.406 60.0103 126.368 59.8608C126.368 59.7113 126.368 59.5805 126.368 59.4684V59.188C126.331 59.188 126.312 59.2067 126.312 59.2441V59.4684C126.312 59.5805 126.293 59.7113 126.256 59.8608C126.256 60.0103 126.256 60.1785 126.256 60.3654C126.256 60.5522 126.237 60.7578 126.199 60.9821C126.199 61.2063 126.199 61.4679 126.199 61.7669C126.162 62.0286 126.143 62.3089 126.143 62.6079C126.143 62.9069 126.124 63.2059 126.087 63.5049C126.049 64.1777 126.031 64.8878 126.031 65.6353C126.031 66.3828 126.012 67.1677 125.974 67.99V69.2234C125.974 69.4476 125.956 69.6719 125.918 69.8961C125.918 70.1204 125.918 70.3259 125.918 70.5128V75.7267C125.918 76.0257 125.937 76.25 125.974 76.3995V78.2496C125.974 78.6607 125.974 79.0718 125.974 79.483C126.012 79.8567 126.031 80.2305 126.031 80.6042C126.031 81.0153 126.031 81.3891 126.031 81.7255C126.068 82.0619 126.087 82.3982 126.087 82.7346C126.124 83.071 126.143 83.3887 126.143 83.6877C126.143 83.9493 126.162 84.2296 126.199 84.5286C126.199 84.7903 126.199 85.0332 126.199 85.2575C126.237 85.4817 126.256 85.6873 126.256 85.8742C126.256 86.061 126.256 86.2479 126.256 86.4348C126.293 86.5843 126.312 86.6964 126.312 86.7712V87.0515C126.312 87.0889 126.331 87.1076 126.368 87.1076V86.7712C126.368 86.6964 126.368 86.5843 126.368 86.4348C126.406 86.2479 126.424 86.061 126.424 85.8742C126.424 85.6873 126.424 85.4817 126.424 85.2575C126.462 85.0332 126.481 84.7903 126.481 84.5286C126.518 84.2296 126.537 83.9493 126.537 83.6877C126.537 83.3887 126.556 83.071 126.593 82.7346C126.593 82.3982 126.593 82.0619 126.593 81.7255C126.631 81.3891 126.649 81.0153 126.649 80.6042C126.649 80.2305 126.649 79.8567 126.649 79.483C126.687 79.0718 126.706 78.6607 126.706 78.2496V77.0162C126.706 76.7172 126.724 76.5116 126.762 76.3995V70.5128ZM136.044 62.2715C136.044 61.7856 136.025 61.1876 135.987 60.4775C135.95 59.7674 135.819 59.0946 135.594 58.4592C135.369 57.8238 135.012 57.2819 134.525 56.8334C134.075 56.3475 133.4 56.1046 132.5 56.1046H130.475C130.062 56.1419 129.706 56.3101 129.406 56.6091C129.106 56.9081 128.956 57.2632 128.956 57.6743V70.2886C128.956 70.6997 129.106 71.0548 129.406 71.3538C129.706 71.6528 130.062 71.8023 130.475 71.8023H132.5C133.4 71.8023 134.075 71.578 134.525 71.1295C135.012 70.681 135.369 70.1391 135.594 69.5037C135.819 68.8309 135.95 68.1582 135.987 67.4854C136.025 66.7753 136.044 66.1773 136.044 65.6914V62.2715ZM139.813 92.9942C139.813 92.9942 139.794 92.9755 139.756 92.9381L139.7 92.8821C139.663 92.8073 139.625 92.7326 139.588 92.6578C139.588 92.5831 139.55 92.5083 139.475 92.4336C139.438 92.3214 139.4 92.2093 139.363 92.0972C139.325 91.9477 139.288 91.7795 139.25 91.5926C139.175 91.2189 139.138 90.8638 139.138 90.5274C139.1 90.3405 139.081 90.1537 139.081 89.9668C139.081 89.7425 139.081 89.4996 139.081 89.238V86.2666C139.081 86.005 139.081 85.7434 139.081 85.4817C139.081 85.2201 139.1 84.9398 139.138 84.6408C139.138 84.3791 139.138 84.1175 139.138 83.8559C139.138 83.5943 139.119 83.3326 139.081 83.071V82.2861C139.081 81.9124 139.063 81.6507 139.025 81.5012C139.025 81.2396 139.006 80.9967 138.969 80.7724C138.969 80.5108 138.95 80.2678 138.913 80.0436C138.838 79.5203 138.763 79.0718 138.688 78.6981C138.65 78.5112 138.613 78.343 138.575 78.1935C138.537 78.0066 138.481 77.8197 138.406 77.6329C138.331 77.446 138.275 77.2965 138.237 77.1844C138.2 77.0722 138.144 76.9601 138.069 76.848C137.994 76.7358 137.937 76.6424 137.9 76.5677C137.862 76.4929 137.825 76.4182 137.787 76.3434C137.75 76.3434 137.712 76.3247 137.675 76.2873C137.637 76.2873 137.619 76.2687 137.619 76.2313L137.675 76.2873C137.675 76.3247 137.694 76.3621 137.731 76.3995C137.731 76.4368 137.731 76.4742 137.731 76.5116C137.769 76.5116 137.787 76.549 137.787 76.6237C137.825 76.6611 137.844 76.6985 137.844 76.7358C137.844 76.7732 137.862 76.8293 137.9 76.904C137.937 77.0535 137.994 77.3152 138.069 77.6889C138.106 77.8758 138.125 78.0627 138.125 78.2496C138.162 78.4364 138.2 78.6233 138.237 78.8102C138.237 78.9971 138.237 79.2026 138.237 79.4269C138.275 79.6138 138.294 79.838 138.294 80.0996V87.0515C138.294 87.201 138.294 87.3318 138.294 87.4439C138.331 87.5561 138.35 87.6869 138.35 87.8364C138.35 88.098 138.35 88.3596 138.35 88.6213C138.387 88.8455 138.425 89.0698 138.463 89.294C138.5 89.5183 138.519 89.7425 138.519 89.9668C138.556 90.191 138.594 90.3966 138.631 90.5835C138.706 90.8077 138.763 91.0133 138.8 91.2002C138.838 91.3497 138.894 91.5179 138.969 91.7048C139.044 91.8916 139.1 92.0411 139.138 92.1533C139.175 92.2654 139.231 92.3775 139.306 92.4896L139.419 92.6018C139.456 92.6391 139.475 92.6765 139.475 92.7139C139.475 92.7139 139.494 92.7326 139.531 92.77L139.756 92.9942H139.813Z" fill="#F4EDE8"/>
<path d="M160.336 65.6914C160.336 67.2612 159.961 68.7001 159.211 70.0083C158.461 71.3164 157.448 72.3629 156.173 73.1478C157.448 73.8953 158.461 74.9418 159.211 76.2873C159.961 77.5955 160.336 79.0344 160.336 80.6042V84.2483C160.299 85.4444 160.055 86.5656 159.605 87.6121C159.155 88.6213 158.536 89.5183 157.748 90.3032C156.961 91.0507 156.042 91.6487 154.992 92.0972C153.942 92.5457 152.817 92.77 151.617 92.77H146.273C146.048 92.77 145.842 92.6765 145.654 92.4896C145.467 92.3028 145.373 92.0972 145.373 91.8729C145.373 92.0972 145.279 92.3028 145.092 92.4896C144.942 92.6765 144.735 92.77 144.473 92.77H141.548C141.548 92.4336 141.604 92.1906 141.716 92.0411C141.866 91.8916 142.016 91.7421 142.166 91.5926C142.316 91.4057 142.448 91.1628 142.56 90.8638C142.71 90.5648 142.785 90.0976 142.785 89.4622V75.7828C142.673 74.6241 142.148 73.7832 141.21 73.2599C141.623 72.9983 142.148 72.8675 142.785 72.8675V56.8334C142.785 56.198 142.71 55.7308 142.56 55.4318C142.448 55.1328 142.316 54.9085 142.166 54.759C142.016 54.5722 141.866 54.404 141.716 54.2545C141.604 54.105 141.548 53.862 141.548 53.5256H144.529C144.754 53.5256 144.96 53.6191 145.148 53.806C145.335 53.9555 145.429 54.161 145.429 54.4227C145.429 53.8246 145.729 53.5256 146.329 53.5256H151.617C152.817 53.5256 153.942 53.7499 154.992 54.1984C156.042 54.6469 156.961 55.2636 157.748 56.0485C158.536 56.796 159.155 57.693 159.605 58.7395C160.055 59.786 160.299 60.8886 160.336 62.0473V65.6914ZM145.823 70.5128C145.823 70.3259 145.804 70.1204 145.767 69.8961C145.767 69.6719 145.767 69.4476 145.767 69.2234V67.99C145.729 67.1677 145.71 66.3828 145.71 65.6353C145.71 64.8878 145.692 64.1777 145.654 63.5049C145.617 63.2059 145.598 62.9069 145.598 62.6079C145.598 62.3089 145.579 62.0286 145.542 61.7669C145.542 61.4679 145.523 61.2063 145.485 60.9821C145.485 60.7578 145.485 60.5522 145.485 60.3654C145.485 60.1785 145.467 60.0103 145.429 59.8608C145.429 59.7113 145.429 59.5805 145.429 59.4684V59.188C145.392 59.188 145.373 59.2067 145.373 59.2441V59.4684C145.373 59.5805 145.354 59.7113 145.317 59.8608C145.317 60.0103 145.317 60.1785 145.317 60.3654C145.317 60.5522 145.298 60.7578 145.26 60.9821C145.26 61.2063 145.26 61.4679 145.26 61.7669C145.223 62.0286 145.204 62.3089 145.204 62.6079C145.204 62.9069 145.185 63.2059 145.148 63.5049C145.11 64.1777 145.092 64.8878 145.092 65.6353C145.092 66.3828 145.073 67.1677 145.035 67.99V69.2234C145.035 69.4476 145.017 69.6719 144.979 69.8961C144.979 70.1204 144.979 70.3259 144.979 70.5128V75.7267C144.979 76.0257 144.998 76.25 145.035 76.3995V78.2496C145.035 78.6607 145.035 79.0718 145.035 79.483C145.073 79.8567 145.092 80.2305 145.092 80.6042C145.092 81.0153 145.092 81.3891 145.092 81.7255C145.129 82.0619 145.148 82.3982 145.148 82.7346C145.185 83.071 145.204 83.3887 145.204 83.6877C145.204 83.9493 145.223 84.2296 145.26 84.5286C145.26 84.7903 145.26 85.0332 145.26 85.2575C145.298 85.4817 145.317 85.6873 145.317 85.8742C145.317 86.061 145.317 86.2479 145.317 86.4348C145.354 86.5843 145.373 86.6964 145.373 86.7712V87.0515C145.373 87.0889 145.392 87.1076 145.429 87.1076V86.7712C145.429 86.6964 145.429 86.5843 145.429 86.4348C145.467 86.2479 145.485 86.061 145.485 85.8742C145.485 85.6873 145.485 85.4817 145.485 85.2575C145.523 85.0332 145.542 84.7903 145.542 84.5286C145.579 84.2296 145.598 83.9493 145.598 83.6877C145.598 83.3887 145.617 83.071 145.654 82.7346C145.654 82.3982 145.654 82.0619 145.654 81.7255C145.692 81.3891 145.71 81.0153 145.71 80.6042C145.71 80.2305 145.71 79.8567 145.71 79.483C145.748 79.0718 145.767 78.6607 145.767 78.2496V77.0162C145.767 76.7172 145.785 76.5116 145.823 76.3995V70.5128ZM157.411 83.5195C157.373 83.5943 157.355 83.6877 157.355 83.7998V85.0893C157.317 85.2388 157.298 85.3883 157.298 85.5378C157.298 85.6499 157.298 85.762 157.298 85.8742C157.298 85.9489 157.28 86.005 157.242 86.0424C157.242 86.0797 157.242 86.1358 157.242 86.2105V86.5469C157.205 86.6217 157.186 86.7151 157.186 86.8272C157.186 86.902 157.167 86.9767 157.13 87.0515C157.13 87.1262 157.111 87.1823 157.073 87.2197V87.3318L157.017 87.4439C157.017 87.4439 157.055 87.4253 157.13 87.3879V87.3318L157.186 87.2757C157.223 87.2384 157.242 87.2197 157.242 87.2197C157.242 87.1823 157.261 87.1449 157.298 87.1076C157.336 87.0328 157.373 86.9581 157.411 86.8833C157.448 86.7712 157.486 86.6777 157.523 86.603C157.561 86.5282 157.58 86.4909 157.58 86.4909C157.58 86.4535 157.598 86.3974 157.636 86.3227C157.673 86.2479 157.692 86.1919 157.692 86.1545C157.692 86.1171 157.711 86.061 157.748 85.9863C157.786 85.9115 157.805 85.8555 157.805 85.8181C157.805 85.7434 157.823 85.6686 157.861 85.5938C157.861 85.5191 157.861 85.463 157.861 85.4257C157.898 85.3509 157.917 85.2762 157.917 85.2014C157.955 85.0519 157.973 84.9024 157.973 84.7529C158.011 84.6034 158.048 84.4539 158.086 84.3044C158.123 84.1923 158.142 84.0241 158.142 83.7998C158.142 83.7251 158.142 83.6503 158.142 83.5756C158.18 83.5008 158.198 83.4261 158.198 83.3513V81.3891C158.198 81.1649 158.18 80.9967 158.142 80.8845V80.6603C158.142 80.5855 158.123 80.5482 158.086 80.5482C158.086 80.5108 158.086 80.4734 158.086 80.436C158.086 80.2492 158.067 80.0996 158.03 79.9875C158.03 79.838 158.011 79.6885 157.973 79.539C157.936 79.4643 157.917 79.3895 157.917 79.3148C157.917 79.24 157.898 79.1653 157.861 79.0905C157.861 79.0531 157.842 79.0344 157.805 79.0344C157.805 78.9971 157.805 78.9597 157.805 78.9223C157.805 78.8849 157.786 78.8663 157.748 78.8663C157.748 78.8289 157.748 78.7915 157.748 78.7541C157.711 78.6794 157.692 78.6233 157.692 78.5859C157.692 78.5486 157.673 78.4925 157.636 78.4177C157.598 78.343 157.58 78.2869 157.58 78.2496C157.58 78.2122 157.561 78.1561 157.523 78.0814C157.486 78.044 157.467 78.0066 157.467 77.9692C157.467 77.9319 157.448 77.8945 157.411 77.8571C157.336 77.7076 157.298 77.6329 157.298 77.6329C157.261 77.5955 157.242 77.5768 157.242 77.5768C157.242 77.5394 157.223 77.502 157.186 77.4647C157.148 77.4273 157.13 77.3899 157.13 77.3525L157.017 77.2404C157.017 77.2404 157.036 77.2778 157.073 77.3525V77.4647C157.111 77.502 157.13 77.5768 157.13 77.6889C157.13 77.7263 157.13 77.7637 157.13 77.8011C157.167 77.8011 157.186 77.8384 157.186 77.9132C157.186 78.0253 157.205 78.1187 157.242 78.1935V78.4738C157.242 78.5486 157.242 78.6046 157.242 78.642C157.28 78.6794 157.298 78.7354 157.298 78.8102C157.298 79.1466 157.317 79.4082 157.355 79.5951V80.4921C157.392 80.679 157.411 80.978 157.411 81.3891V83.5195ZM155.105 80.6042C155.105 80.1183 155.086 79.5203 155.048 78.8102C155.011 78.1001 154.88 77.4273 154.654 76.7919C154.429 76.1565 154.073 75.6146 153.586 75.1661C153.136 74.6802 152.461 74.4373 151.561 74.4373H149.535C149.123 74.4746 148.767 74.6428 148.467 74.9418C148.167 75.2408 148.017 75.5959 148.017 76.007V88.6213C148.017 89.0324 148.167 89.3875 148.467 89.6865C148.767 89.9855 149.123 90.135 149.535 90.135H151.561C152.461 90.135 153.136 89.9107 153.586 89.4622C154.073 89.0137 154.429 88.4718 154.654 87.8364C154.88 87.1636 155.011 86.4909 155.048 85.8181C155.086 85.108 155.105 84.51 155.105 84.0241V80.6042ZM155.105 62.2715C155.105 61.7856 155.086 61.1876 155.048 60.4775C155.011 59.7674 154.88 59.0946 154.654 58.4592C154.429 57.8238 154.073 57.2819 153.586 56.8334C153.136 56.3475 152.461 56.1046 151.561 56.1046H149.535C149.123 56.1419 148.767 56.3101 148.467 56.6091C148.167 56.9081 148.017 57.2632 148.017 57.6743V70.2886C148.017 70.6997 148.167 71.0548 148.467 71.3538C148.767 71.6528 149.123 71.8023 149.535 71.8023H151.561C152.461 71.8023 153.136 71.578 153.586 71.1295C154.073 70.681 154.429 70.1391 154.654 69.5037C154.88 68.8309 155.011 68.1582 155.048 67.4854C155.086 66.7753 155.105 66.1773 155.105 65.6914V62.2715ZM157.523 67.8218C157.561 67.747 157.58 67.7097 157.58 67.7097C157.58 67.6723 157.598 67.6162 157.636 67.5415C157.673 67.4667 157.692 67.4107 157.692 67.3733C157.692 67.2985 157.711 67.2238 157.748 67.149C157.786 67.0743 157.805 67.0182 157.805 66.9808C157.805 66.9435 157.823 66.8874 157.861 66.8126C157.861 66.7379 157.861 66.6818 157.861 66.6445C157.898 66.5697 157.917 66.495 157.917 66.4202C157.955 66.2707 157.973 66.1212 157.973 65.9717C158.011 65.8222 158.048 65.6727 158.086 65.5232C158.123 65.4111 158.142 65.2429 158.142 65.0186C158.142 64.9439 158.142 64.8691 158.142 64.7944C158.18 64.7196 158.198 64.6449 158.198 64.5701V62.6079C158.198 62.3836 158.18 62.2155 158.142 62.1033V61.8791C158.142 61.8043 158.123 61.7669 158.086 61.7669C158.086 61.7296 158.086 61.6735 158.086 61.5988C158.086 61.4119 158.048 61.1316 157.973 60.7578C157.936 60.6831 157.917 60.6083 157.917 60.5336C157.917 60.4588 157.898 60.3841 157.861 60.3093C157.861 60.2719 157.842 60.2532 157.805 60.2532C157.805 60.2159 157.805 60.1785 157.805 60.1411C157.805 60.1037 157.786 60.0851 157.748 60.0851C157.748 60.0477 157.748 60.0103 157.748 59.9729C157.711 59.8982 157.692 59.8421 157.692 59.8047C157.692 59.7674 157.673 59.7113 157.636 59.6365C157.598 59.5618 157.58 59.5057 157.58 59.4684C157.58 59.431 157.561 59.3749 157.523 59.3002C157.486 59.2628 157.467 59.2254 157.467 59.188C157.467 59.1507 157.448 59.1133 157.411 59.0759C157.336 58.9264 157.298 58.8517 157.298 58.8517C157.261 58.8143 157.242 58.7956 157.242 58.7956C157.242 58.7582 157.223 58.7208 157.186 58.6835C157.148 58.6461 157.13 58.6087 157.13 58.5713C157.092 58.534 157.073 58.4966 157.073 58.4592H157.017C157.017 58.4592 157.036 58.4966 157.073 58.5713V58.6835C157.111 58.7208 157.13 58.7956 157.13 58.9077C157.13 58.9451 157.13 58.9825 157.13 59.0198C157.167 59.0198 157.186 59.0572 157.186 59.132C157.186 59.2441 157.205 59.3375 157.242 59.4123V59.6926C157.242 59.7674 157.242 59.8234 157.242 59.8608C157.28 59.8982 157.298 59.9542 157.298 60.029C157.298 60.3654 157.317 60.627 157.355 60.8139V61.7109C157.392 61.8978 157.411 62.1968 157.411 62.6079V64.7383C157.373 64.8131 157.355 64.9065 157.355 65.0186V66.3081C157.317 66.4576 157.298 66.6071 157.298 66.7566C157.298 66.8687 157.298 66.9808 157.298 67.093C157.298 67.1677 157.28 67.2238 157.242 67.2612C157.242 67.2985 157.242 67.3546 157.242 67.4293V67.7657C157.205 67.8405 157.186 67.9339 157.186 68.046C157.186 68.1208 157.167 68.1955 157.13 68.2703C157.13 68.345 157.111 68.4011 157.073 68.4385V68.5506L157.017 68.6627C157.017 68.6627 157.055 68.644 157.13 68.6067V68.5506L157.186 68.4945C157.223 68.4572 157.242 68.4385 157.242 68.4385C157.242 68.4011 157.261 68.3637 157.298 68.3264C157.336 68.2516 157.373 68.1769 157.411 68.1021C157.448 67.99 157.486 67.8965 157.523 67.8218Z" fill="#F4EDE8"/>
<path d="M179.509 89.3501C179.509 90.0229 179.566 90.5274 179.678 90.8638C179.828 91.1628 179.978 91.4057 180.128 91.5926C180.278 91.7421 180.409 91.8916 180.522 92.0411C180.672 92.1906 180.747 92.4336 180.747 92.77H165.446C165.221 92.77 165.015 92.6765 164.827 92.4896C164.64 92.3028 164.546 92.0972 164.546 91.8729C164.546 92.0972 164.452 92.3028 164.265 92.4896C164.115 92.6765 163.909 92.77 163.646 92.77H160.721C160.721 92.4336 160.777 92.1906 160.89 92.0411C161.04 91.8916 161.19 91.7421 161.34 91.5926C161.49 91.4057 161.621 91.1628 161.734 90.8638C161.884 90.5648 161.959 90.0976 161.959 89.4622V75.7828C161.846 74.6241 161.321 73.7832 160.383 73.2599C160.796 72.9983 161.321 72.8675 161.959 72.8675V56.8334C161.959 56.198 161.884 55.7308 161.734 55.4318C161.621 55.1328 161.49 54.9085 161.34 54.759C161.19 54.5722 161.04 54.404 160.89 54.2545C160.777 54.105 160.721 53.862 160.721 53.5256H163.702C163.927 53.5256 164.134 53.6191 164.321 53.806C164.509 53.9555 164.602 54.161 164.602 54.4227C164.602 53.8246 164.902 53.5256 165.502 53.5256H180.747C180.747 53.862 180.672 54.105 180.522 54.2545C180.409 54.404 180.278 54.5722 180.128 54.759C179.978 54.9085 179.828 55.1515 179.678 55.4879C179.566 55.7869 179.509 56.2727 179.509 56.9455V64.4019C178.197 64.4019 177.184 64.159 176.472 63.6731C175.797 63.1498 175.29 62.5705 174.953 61.9351C174.54 61.225 174.315 60.3841 174.278 59.4123V57.6743C174.278 57.2632 174.128 56.9081 173.828 56.6091C173.528 56.3101 173.172 56.1419 172.759 56.1046H168.709C168.296 56.1419 167.94 56.3101 167.64 56.6091C167.34 56.9081 167.19 57.2632 167.19 57.6743V70.2886C167.19 70.6997 167.34 71.0548 167.64 71.3538C167.94 71.6528 168.296 71.8023 168.709 71.8023H169.103C169.515 71.8023 169.853 71.6528 170.115 71.3538C170.415 71.0548 170.565 70.6997 170.565 70.2886V70.2325C170.603 69.6719 170.753 69.186 171.015 68.7749C171.24 68.4011 171.578 68.0647 172.028 67.7657C172.478 67.4667 173.134 67.3172 173.997 67.3172V78.9223C173.134 78.9223 172.478 78.7728 172.028 78.4738C171.578 78.1748 171.24 77.8384 171.015 77.4647C170.753 77.0535 170.603 76.5677 170.565 76.007C170.565 75.5959 170.415 75.2408 170.115 74.9418C169.853 74.6428 169.515 74.4746 169.103 74.4373H168.709C168.296 74.4746 167.94 74.6428 167.64 74.9418C167.34 75.2408 167.19 75.5959 167.19 76.007V88.6213C167.19 89.0324 167.34 89.3875 167.64 89.6865C167.94 89.9855 168.296 90.135 168.709 90.135H172.759C173.172 90.135 173.528 89.9855 173.828 89.6865C174.128 89.3875 174.278 89.0324 174.278 88.6213V86.8272C174.315 85.8929 174.54 85.0706 174.953 84.3605C175.29 83.7251 175.797 83.1458 176.472 82.6225C177.184 82.0992 178.197 81.8376 179.509 81.8376V89.3501ZM164.996 70.5128C164.996 70.3259 164.977 70.1204 164.94 69.8961C164.94 69.6719 164.94 69.4476 164.94 69.2234V67.99C164.902 67.1677 164.884 66.3828 164.884 65.6353C164.884 64.8878 164.865 64.1777 164.827 63.5049C164.79 63.2059 164.771 62.9069 164.771 62.6079C164.771 62.3089 164.752 62.0286 164.715 61.7669C164.715 61.4679 164.696 61.2063 164.659 60.9821C164.659 60.7578 164.659 60.5522 164.659 60.3654C164.659 60.1785 164.64 60.0103 164.602 59.8608C164.602 59.7113 164.602 59.5805 164.602 59.4684V59.188C164.565 59.188 164.546 59.2067 164.546 59.2441V59.4684C164.546 59.5805 164.527 59.7113 164.49 59.8608C164.49 60.0103 164.49 60.1785 164.49 60.3654C164.49 60.5522 164.471 60.7578 164.434 60.9821C164.434 61.2063 164.434 61.4679 164.434 61.7669C164.396 62.0286 164.377 62.3089 164.377 62.6079C164.377 62.9069 164.359 63.2059 164.321 63.5049C164.284 64.1777 164.265 64.8878 164.265 65.6353C164.265 66.3828 164.246 67.1677 164.209 67.99V69.2234C164.209 69.4476 164.19 69.6719 164.152 69.8961C164.152 70.1204 164.152 70.3259 164.152 70.5128V75.7267C164.152 76.0257 164.171 76.25 164.209 76.3995V78.2496C164.209 78.6607 164.209 79.0718 164.209 79.483C164.246 79.8567 164.265 80.2305 164.265 80.6042C164.265 81.0153 164.265 81.3891 164.265 81.7255C164.302 82.0619 164.321 82.3982 164.321 82.7346C164.359 83.071 164.377 83.3887 164.377 83.6877C164.377 83.9493 164.396 84.2296 164.434 84.5286C164.434 84.7903 164.434 85.0332 164.434 85.2575C164.471 85.4817 164.49 85.6873 164.49 85.8742C164.49 86.061 164.49 86.2479 164.49 86.4348C164.527 86.5843 164.546 86.6964 164.546 86.7712V87.0515C164.546 87.0889 164.565 87.1076 164.602 87.1076V86.7712C164.602 86.6964 164.602 86.5843 164.602 86.4348C164.64 86.2479 164.659 86.061 164.659 85.8742C164.659 85.6873 164.659 85.4817 164.659 85.2575C164.696 85.0332 164.715 84.7903 164.715 84.5286C164.752 84.2296 164.771 83.9493 164.771 83.6877C164.771 83.3887 164.79 83.071 164.827 82.7346C164.827 82.3982 164.827 82.0619 164.827 81.7255C164.865 81.3891 164.884 81.0153 164.884 80.6042C164.884 80.2305 164.884 79.8567 164.884 79.483C164.921 79.0718 164.94 78.6607 164.94 78.2496V77.0162C164.94 76.7172 164.959 76.5116 164.996 76.3995V70.5128Z" fill="#F4EDE8"/>
<path d="M202.139 95.1246C202.551 95.1994 202.833 95.3302 202.983 95.5171C203.17 95.7039 203.301 95.8908 203.376 96.0777C203.451 96.3019 203.489 96.5449 203.489 96.8065C202.289 96.8065 201.164 96.657 200.114 96.358C199.064 96.059 198.126 95.5731 197.301 94.9004C196.514 94.2276 195.876 93.3493 195.388 92.2654C194.938 91.1815 194.713 89.8547 194.713 88.2849V80.6042C194.713 80.1183 194.695 79.5203 194.657 78.8102C194.62 78.1001 194.488 77.4273 194.263 76.7919C194.038 76.1565 193.682 75.6146 193.195 75.1661C192.745 74.6802 192.07 74.4373 191.17 74.4373H188.863C188.526 74.512 188.226 74.6989 187.963 74.9979C187.738 75.2595 187.626 75.5772 187.626 75.951V89.3501C187.626 90.0229 187.682 90.5274 187.794 90.8638C187.944 91.1628 188.094 91.4057 188.244 91.5926C188.394 91.7421 188.526 91.8916 188.638 92.0411C188.788 92.1906 188.863 92.4336 188.863 92.77H185.882C185.657 92.77 185.45 92.6765 185.263 92.4896C185.075 92.3028 184.982 92.0972 184.982 91.8729C184.982 92.0972 184.888 92.3028 184.7 92.4896C184.55 92.6765 184.344 92.77 184.082 92.77H181.157C181.157 92.4336 181.213 92.1906 181.325 92.0411C181.475 91.8916 181.625 91.7421 181.775 91.5926C181.925 91.4057 182.057 91.1628 182.169 90.8638C182.319 90.5648 182.394 90.0976 182.394 89.4622V75.7828C182.282 74.6241 181.757 73.7832 180.819 73.2599C181.232 72.9983 181.757 72.8675 182.394 72.8675V56.8334C182.394 56.198 182.319 55.7308 182.169 55.4318C182.057 55.1328 181.925 54.9085 181.775 54.759C181.625 54.5722 181.475 54.404 181.325 54.2545C181.213 54.105 181.157 53.862 181.157 53.5256H184.138C184.363 53.5256 184.569 53.6191 184.757 53.806C184.944 53.9555 185.038 54.161 185.038 54.4227C185.038 53.8246 185.338 53.5256 185.938 53.5256H191.226C192.426 53.5256 193.551 53.7499 194.601 54.1984C195.651 54.6469 196.57 55.2636 197.357 56.0485C198.145 56.796 198.764 57.693 199.214 58.7395C199.664 59.786 199.907 60.8886 199.945 62.0473V65.6914C199.945 67.2612 199.57 68.7001 198.82 70.0083C198.07 71.3164 197.057 72.3629 195.782 73.1478C197.057 73.8953 198.07 74.9418 198.82 76.2873C199.57 77.5955 199.945 79.0344 199.945 80.6042V88.0606C199.945 88.8455 199.945 89.6491 199.945 90.4714C199.982 91.2562 200.076 91.9851 200.226 92.6578C200.376 93.2932 200.601 93.8352 200.901 94.2837C201.201 94.7322 201.614 95.0125 202.139 95.1246ZM197.02 64.7383C196.982 64.8131 196.964 64.9065 196.964 65.0186V66.3081C196.926 66.4576 196.907 66.6071 196.907 66.7566C196.907 66.8687 196.907 66.9808 196.907 67.093C196.907 67.1677 196.889 67.2238 196.851 67.2612C196.851 67.2985 196.851 67.3546 196.851 67.4293V67.7657C196.814 67.8405 196.795 67.9339 196.795 68.046C196.795 68.1208 196.776 68.1955 196.739 68.2703C196.739 68.345 196.72 68.4011 196.682 68.4385V68.5506L196.626 68.6627C196.626 68.6627 196.664 68.644 196.739 68.6067V68.5506L196.795 68.4945C196.832 68.4572 196.851 68.4385 196.851 68.4385C196.851 68.4011 196.87 68.3637 196.907 68.3264C196.945 68.2516 196.982 68.1769 197.02 68.1021C197.057 67.99 197.095 67.8965 197.132 67.8218C197.17 67.747 197.189 67.7097 197.189 67.7097C197.189 67.6723 197.207 67.6162 197.245 67.5415C197.282 67.4667 197.301 67.4107 197.301 67.3733C197.301 67.2985 197.32 67.2238 197.357 67.149C197.395 67.0743 197.414 67.0182 197.414 66.9808C197.414 66.9435 197.432 66.8874 197.47 66.8126C197.47 66.7379 197.47 66.6818 197.47 66.6445C197.507 66.5697 197.526 66.495 197.526 66.4202C197.564 66.2707 197.582 66.1212 197.582 65.9717C197.62 65.8222 197.657 65.6727 197.695 65.5232C197.732 65.4111 197.751 65.2429 197.751 65.0186C197.751 64.9439 197.751 64.8691 197.751 64.7944C197.789 64.7196 197.807 64.6449 197.807 64.5701V62.6079C197.807 62.3836 197.789 62.2155 197.751 62.1033V61.8791C197.751 61.8043 197.732 61.7669 197.695 61.7669C197.695 61.7296 197.695 61.6735 197.695 61.5988C197.695 61.4119 197.657 61.1316 197.582 60.7578C197.545 60.6831 197.526 60.6083 197.526 60.5336C197.526 60.4588 197.507 60.3841 197.47 60.3093C197.47 60.2719 197.451 60.2532 197.414 60.2532C197.414 60.2159 197.414 60.1785 197.414 60.1411C197.414 60.1037 197.395 60.0851 197.357 60.0851C197.357 60.0477 197.357 60.0103 197.357 59.9729C197.32 59.8982 197.301 59.8421 197.301 59.8047C197.301 59.7674 197.282 59.7113 197.245 59.6365C197.207 59.5618 197.189 59.5057 197.189 59.4684C197.189 59.431 197.17 59.3749 197.132 59.3002C197.095 59.2628 197.076 59.2254 197.076 59.188C197.076 59.1507 197.057 59.1133 197.02 59.0759C196.945 58.9264 196.907 58.8517 196.907 58.8517C196.87 58.8143 196.851 58.7956 196.851 58.7956C196.851 58.7582 196.832 58.7208 196.795 58.6835C196.757 58.6461 196.739 58.6087 196.739 58.5713C196.701 58.534 196.682 58.4966 196.682 58.4592H196.626C196.626 58.4592 196.645 58.4966 196.682 58.5713V58.6835C196.72 58.7208 196.739 58.7956 196.739 58.9077C196.739 58.9451 196.739 58.9825 196.739 59.0198C196.776 59.0198 196.795 59.0572 196.795 59.132C196.795 59.2441 196.814 59.3375 196.851 59.4123V59.6926C196.851 59.7674 196.851 59.8234 196.851 59.8608C196.889 59.8982 196.907 59.9542 196.907 60.029C196.907 60.3654 196.926 60.627 196.964 60.8139V61.7109C197.001 61.8978 197.02 62.1968 197.02 62.6079V64.7383ZM185.432 70.5128C185.432 70.3259 185.413 70.1204 185.375 69.8961C185.375 69.6719 185.375 69.4476 185.375 69.2234V67.99C185.338 67.1677 185.319 66.3828 185.319 65.6353C185.319 64.8878 185.3 64.1777 185.263 63.5049C185.225 63.2059 185.207 62.9069 185.207 62.6079C185.207 62.3089 185.188 62.0286 185.15 61.7669C185.15 61.4679 185.132 61.2063 185.094 60.9821C185.094 60.7578 185.094 60.5522 185.094 60.3654C185.094 60.1785 185.075 60.0103 185.038 59.8608C185.038 59.7113 185.038 59.5805 185.038 59.4684V59.188C185 59.188 184.982 59.2067 184.982 59.2441V59.4684C184.982 59.5805 184.963 59.7113 184.925 59.8608C184.925 60.0103 184.925 60.1785 184.925 60.3654C184.925 60.5522 184.907 60.7578 184.869 60.9821C184.869 61.2063 184.869 61.4679 184.869 61.7669C184.832 62.0286 184.813 62.3089 184.813 62.6079C184.813 62.9069 184.794 63.2059 184.757 63.5049C184.719 64.1777 184.7 64.8878 184.7 65.6353C184.7 66.3828 184.682 67.1677 184.644 67.99V69.2234C184.644 69.4476 184.625 69.6719 184.588 69.8961C184.588 70.1204 184.588 70.3259 184.588 70.5128V75.7267C184.588 76.0257 184.607 76.25 184.644 76.3995V78.2496C184.644 78.6607 184.644 79.0718 184.644 79.483C184.682 79.8567 184.7 80.2305 184.7 80.6042C184.7 81.0153 184.7 81.3891 184.7 81.7255C184.738 82.0619 184.757 82.3982 184.757 82.7346C184.794 83.071 184.813 83.3887 184.813 83.6877C184.813 83.9493 184.832 84.2296 184.869 84.5286C184.869 84.7903 184.869 85.0332 184.869 85.2575C184.907 85.4817 184.925 85.6873 184.925 85.8742C184.925 86.061 184.925 86.2479 184.925 86.4348C184.963 86.5843 184.982 86.6964 184.982 86.7712V87.0515C184.982 87.0889 185 87.1076 185.038 87.1076V86.7712C185.038 86.6964 185.038 86.5843 185.038 86.4348C185.075 86.2479 185.094 86.061 185.094 85.8742C185.094 85.6873 185.094 85.4817 185.094 85.2575C185.132 85.0332 185.15 84.7903 185.15 84.5286C185.188 84.2296 185.207 83.9493 185.207 83.6877C185.207 83.3887 185.225 83.071 185.263 82.7346C185.263 82.3982 185.263 82.0619 185.263 81.7255C185.3 81.3891 185.319 81.0153 185.319 80.6042C185.319 80.2305 185.319 79.8567 185.319 79.483C185.357 79.0718 185.375 78.6607 185.375 78.2496V77.0162C185.375 76.7172 185.394 76.5116 185.432 76.3995V70.5128ZM194.713 62.2715C194.713 61.7856 194.695 61.1876 194.657 60.4775C194.62 59.7674 194.488 59.0946 194.263 58.4592C194.038 57.8238 193.682 57.2819 193.195 56.8334C192.745 56.3475 192.07 56.1046 191.17 56.1046H189.144C188.732 56.1419 188.376 56.3101 188.076 56.6091C187.776 56.9081 187.626 57.2632 187.626 57.6743V70.2886C187.626 70.6997 187.776 71.0548 188.076 71.3538C188.376 71.6528 188.732 71.8023 189.144 71.8023H191.17C192.07 71.8023 192.745 71.578 193.195 71.1295C193.682 70.681 194.038 70.1391 194.263 69.5037C194.488 68.8309 194.62 68.1582 194.657 67.4854C194.695 66.7753 194.713 66.1773 194.713 65.6914V62.2715ZM198.482 92.9942C198.482 92.9942 198.464 92.9755 198.426 92.9381L198.37 92.8821C198.332 92.8073 198.295 92.7326 198.257 92.6578C198.257 92.5831 198.22 92.5083 198.145 92.4336C198.107 92.3214 198.07 92.2093 198.032 92.0972C197.995 91.9477 197.957 91.7795 197.92 91.5926C197.845 91.2189 197.807 90.8638 197.807 90.5274C197.77 90.3405 197.751 90.1537 197.751 89.9668C197.751 89.7425 197.751 89.4996 197.751 89.238V86.2666C197.751 86.005 197.751 85.7434 197.751 85.4817C197.751 85.2201 197.77 84.9398 197.807 84.6408C197.807 84.3791 197.807 84.1175 197.807 83.8559C197.807 83.5943 197.789 83.3326 197.751 83.071V82.2861C197.751 81.9124 197.732 81.6507 197.695 81.5012C197.695 81.2396 197.676 80.9967 197.639 80.7724C197.639 80.5108 197.62 80.2678 197.582 80.0436C197.507 79.5203 197.432 79.0718 197.357 78.6981C197.32 78.5112 197.282 78.343 197.245 78.1935C197.207 78.0066 197.151 77.8197 197.076 77.6329C197.001 77.446 196.945 77.2965 196.907 77.1844C196.87 77.0722 196.814 76.9601 196.739 76.848C196.664 76.7358 196.607 76.6424 196.57 76.5677C196.532 76.4929 196.495 76.4182 196.457 76.3434C196.42 76.3434 196.382 76.3247 196.345 76.2873C196.307 76.2873 196.289 76.2687 196.289 76.2313L196.345 76.2873C196.345 76.3247 196.364 76.3621 196.401 76.3995C196.401 76.4368 196.401 76.4742 196.401 76.5116C196.439 76.5116 196.457 76.549 196.457 76.6237C196.495 76.6611 196.514 76.6985 196.514 76.7358C196.514 76.7732 196.532 76.8293 196.57 76.904C196.607 77.0535 196.664 77.3152 196.739 77.6889C196.776 77.8758 196.795 78.0627 196.795 78.2496C196.832 78.4364 196.87 78.6233 196.907 78.8102C196.907 78.9971 196.907 79.2026 196.907 79.4269C196.945 79.6138 196.964 79.838 196.964 80.0996V87.0515C196.964 87.201 196.964 87.3318 196.964 87.4439C197.001 87.5561 197.02 87.6869 197.02 87.8364C197.02 88.098 197.02 88.3596 197.02 88.6213C197.057 88.8455 197.095 89.0698 197.132 89.294C197.17 89.5183 197.189 89.7425 197.189 89.9668C197.226 90.191 197.264 90.3966 197.301 90.5835C197.376 90.8077 197.432 91.0133 197.47 91.2002C197.507 91.3497 197.564 91.5179 197.639 91.7048C197.714 91.8916 197.77 92.0411 197.807 92.1533C197.845 92.2654 197.901 92.3775 197.976 92.4896L198.089 92.6018C198.126 92.6391 198.145 92.6765 198.145 92.7139C198.145 92.7139 198.164 92.7326 198.201 92.77L198.426 92.9942H198.482Z" fill="#F4EDE8"/>
<path d="M214.947 71.0254C216.611 71.0254 217.961 72.3701 217.961 74.0288C217.961 75.6875 216.611 77.0322 214.947 77.0322C213.283 77.0322 211.933 75.6875 211.933 74.0288C211.933 72.3701 213.283 71.0254 214.947 71.0254Z" fill="#999591"/>
<path d="M23.0857 71.0254C24.75 71.0254 26.0992 72.3701 26.0992 74.0288C26.0992 75.6875 24.75 77.0322 23.0857 77.0322C21.4214 77.0322 20.0722 75.6875 20.0722 74.0288C20.0722 72.3701 21.4214 71.0254 23.0857 71.0254Z" fill="#999591"/>
</svg>
